<?xml version="1.0" encoding="utf-8"?>
<!-- Generator: Adobe Illustrator 23.0.3, SVG Export Plug-In . SVG Version: 6.00 Build 0)  -->
<svg version="1.1" id="Layer_1" xmlns="http://www.w3.org/2000/svg" xmlns:xlink="http://www.w3.org/1999/xlink" x="0px" y="0px"
	 viewBox="0 0 410 404.34" style="enable-background:new 0 0 410 404.34;" xml:space="preserve">
<style type="text/css">
	.st0{fill:#3428DB;}
	.st1{fill:#DFE1F4;}
	.st2{fill:#FF381F;}
	.st3{fill:#F9DCDC;}
</style>
<rect class="st2" width="410" height="404.34"/>
<g>
	<g>
		<path class="st3" d="M311.43,279.95c-0.16,0.19-0.43,0.63-0.82,0.95c-0.32,0.26-0.87,0.61-1.11,0.49c-0.37-0.18-0.6-0.7-0.81-1.12
			c-0.09-0.18,0.02-0.47,0.03-0.64c-0.94-0.08-1.76-0.07-2.54-0.24c-2.1-0.46-4.19,0.09-6.29-0.01c-0.34-0.02-0.95,0.4-1.01,0.7
			c-0.28,1.44-1.44,1.81-2.53,2.03c-1.17,0.24-2.43,0.22-3.63,0.13c-1.19-0.09-2.05-1.55-1.41-2.58c0.96-1.54-0.02-2.98-0.01-4.46
			c0-0.51-1.01-1.04-1.65-1.63c0.21-0.88,0.39-1.81,0.66-2.72c0.26-0.87,0.31-1.66,0.14-2.61c-0.25-1.44,0.48-2.71,1.62-3.65
			c1.52-1.26,2.54-2.88,3.03-4.75c0.28-1.08,0.19-2.28,0.2-3.42c0.01-1.67,0.05-3.29,1.04-4.8c0.33-0.5,0.18-1.55-0.12-2.17
			c-0.58-1.19-0.26-2.12,0.47-3c1.11-1.32,2.24-2.62,3.41-3.88c0.8-0.87,1.05-1.53,0.32-2.35c-0.85-0.95-0.96-2.07-1.17-3.18
			c-0.18-0.92,0.08-1.91-0.62-2.75c-0.16-0.2,0.06-0.83,0.25-1.19c0.45-0.85,0.97-1.66,1.48-2.47c1.18-1.88,1.87-3.92,2-6.14
			c0.02-0.34-0.11-0.72-0.25-1.05c-0.52-1.27-0.42-1.8,0.57-2.71c1.23-1.13,1.18-1.1,0.32-2.62c-0.4-0.7-0.77-1.55-0.75-2.33
			c0.04-1.69-0.33-3.39,0.48-5.09c0.42-0.89,0.26-2.15,0.13-3.21c-0.33-2.6,1.48-4.89,4.13-5.08c0.98-0.07,2.15,0.18,2.5-1.35
			c-0.91-0.64-1.8-1.03-2.89-0.24c-0.77,0.56-1.38,0.13-1.68-0.61c-0.58-1.46-1.36-2.81-0.86-4.59c0.34-1.21,0.36-2.66-0.74-3.79
			c-0.59-0.61-0.51-1.39-0.08-2.14c0.31-0.53,0.85-1.17,0.75-1.65c-0.23-1.09-0.76-2.13-1.25-3.15c-0.19-0.38-0.62-0.64-0.92-0.97
			c-1.59-1.71-1.63-3.31-0.14-5.1c0.16-0.19,0.3-0.4,0.49-0.67c-0.24-0.52-0.47-1.02-0.72-1.56c0.54-0.74,1.05-1.47,1.58-2.18
			c0.95-1.29,1.03-2.48,0.19-3.88c-0.39-0.66-0.8-1.32-1.28-1.92c-1.56-1.94-3.13-3.88-4.77-5.75c-0.44-0.5-1.11-0.99-1.74-1.1
			c-1.57-0.26-3.25-0.64-4.75-0.33c-1.53,0.32-3.17,0.9-4.39,2.08c-1.11,1.07-2.35,1.72-3.94,1.7c-0.46-0.01-0.99,0.21-1.38,0.49
			c-0.55,0.39-0.66,1.02-0.09,1.47c1.24,0.98,2.3,2.01,2.43,3.72c0.02,0.23,0.52,0.5,0.84,0.63c0.92,0.38,1.63,0.96,2.05,1.89
			c0.16,0.35,0.32,0.75,0.6,0.98c1.89,1.54,2.42,3.82,3.27,5.92c0.16,0.4,0.25,0.91,0.17,1.32c-0.49,2.41-0.51,4.97-1.84,7.15
			c-0.55,0.9-0.45,1.5,0.28,2.18c0.31,0.29,0.7,0.79,0.64,1.12c-0.4,2.17,0.72,4.41-0.35,6.54c-0.35,0.7-0.65,1.32-1.53,1.58
			c-0.65,0.19-1.33,0.6-1.76,1.11c-0.88,1.07-1.91,1.24-3.08,0.77c-0.8-0.32-1.36-0.22-1.73,0.59c-0.35,0.78-0.06,1.43,0.57,1.84
			c0.8,0.53,1.69,0.91,2.53,1.38c1.45,0.83,2.19,1.95,1.33,3.82c-0.31,0.12-0.76,0.4-1.24,0.48c-2.26,0.36-4.52,0.8-6.79,0.94
			c-1.01,0.06-2.32-0.23-3.05-0.87c-1.3-1.12-2.78-1.51-4.32-1.92c-0.3-0.08-0.61-0.15-0.78-0.2c-0.35-0.83-0.65-1.52-0.94-2.22
			c-0.07-0.17-0.2-0.39-0.15-0.54c0.54-1.6-0.13-3.17-0.09-4.75c0.02-1.2-0.2-2.41-0.28-3.62c-0.04-0.57-0.06-1.16,0.02-1.73
			c0.11-0.74,0.47-1.18,1.34-1.37c3.41-0.74,3.55-0.95,3.62-4.44c0.02-1.03-0.05-2.06,0.02-3.08c0.06-0.88,0.21-1.77,0.44-2.63
			c0.33-1.21,0.47-2.21-0.47-3.37c-0.71-0.87-0.86-2.23-1.17-3.39c-0.24-0.89,0.15-1.71,0.81-2.24c1.03-0.82,2.12-1.6,3.29-2.19
			c1.62-0.81,1.85-0.97,1.23-2.59c-0.33-0.87-0.18-1.6,0.05-2.41c0.44-1.52,0.26-1.79-1.08-2.3c-1.05-0.4-2.06-0.92-3.07-1.37
			c-0.3-1.27-0.19-2.45,0.81-3.05c0.86-0.52,2.02-0.55,3.28-0.86c-0.29-0.32-0.5-0.7-0.81-0.84c-0.33-0.14-0.76-0.08-1.14-0.04
			c-1.47,0.18-2.58-0.35-3.54-1.48c-1.9-2.23-4.4-3.38-7.25-3.94c-2.18-0.43-4.33-1.05-6.49-1.59c-0.12-0.03-0.26-0.07-0.35-0.15
			c-3-2.48-6.45-1.42-9.78-1.2c-1.52,0.1-3.03,0.44-4.54,0.6c-1.88,0.2-3.61-0.23-5.2-1.32c-0.47-0.32-1.24-0.54-1.76-0.39
			c-1.45,0.41-3,0.37-4.37,1.25c-0.92,0.59-2.14,0.85-3.24-0.04c-1.09-0.88-1.32-2.12-0.36-3.16c0.82-0.89,1.78-1.65,2.66-2.49
			c1.2-1.15,2.35-2.33,3.56-3.47c0.74-0.7,1.47-1.44,2.31-1.98c1.22-0.79,2.15-1.69,2.63-3.15c0.32-0.99,1.02-1.91,1.73-2.7
			c0.71-0.79,1.1-1.56,0.76-2.6c-0.25-0.78-0.36-1.56,0.46-2.05c0.8-0.48,1.68-0.69,2.56-0.19c1.43,0.82,2.84,1.69,4.25,2.54
			c1.67,1.01,2.11,0.96,3.51-0.37c0.56-0.53,1.09-1.11,1.71-1.55c1.01-0.72,1.74-1.46,1.22-2.86c-0.21-0.57,0.25-0.97,0.76-1.37
			c1.83-1.47,4.12-2.28,5.73-4.04c0.67-0.73,1.41-0.69,2.28-0.51c1.25,0.26,2.51,0.47,3.78,0.6c2.1,0.22,3.35,1.44,3.79,3.56
			c0.16,0.76,0.63,1.54,1.17,2.12c1.18,1.29,2.2,2.56,2.7,4.34c0.31,1.08,1.37,1.96,2.15,2.89c1.14,1.37,0.96,2.07-0.72,2.58
			c-0.91,0.28-1.83,0.55-2.73,0.86c-0.22,0.08-0.39,0.3-0.7,0.56c0.26,0.59,0.46,1.2,0.78,1.73c0.92,1.52,1.91,1.79,3.58,1.13
			c0.95-0.38,1.91-0.74,2.88-1.02c1.16-0.33,1.89-0.96,2.13-2.2c0.23-1.18,0.42-2.39,1.37-3.31c0.26-0.26,0.34-0.85,0.28-1.25
			c-0.2-1.47,0.41-2.61,1.29-3.68c0.2-0.25,0.42-0.49,0.56-0.77c1.14-2.16,0.95-3.07-0.69-4.97c-1.16-1.34-2.14-2.84-3.23-4.25
			c-0.35-0.45-0.74-0.92-1.22-1.21c-1.36-0.82-1.85-2.01-2.3-3.53c-0.53-1.78-0.66-3.5-0.64-5.29c0-0.5,0.12-1,0.19-1.55
			c1.6-0.1,3.12-0.23,4.65-0.28c1.72-0.05,2.62-1.17,3.41-2.46c0.35-0.58,0.16-1.1-0.29-1.56c-1.12-1.13-2.3-2.19-2.8-3.83
			c-0.14-0.47-0.92-0.88-1.49-1.08c-0.77-0.27-1.63-0.35-2.45-0.43c-1.39-0.13-2.31,0.68-2.45,2.09c-0.02,0.19-0.01,0.39-0.02,0.58
			c-0.12,1.86-0.9,2.35-2.64,1.67c-1.59-0.63-3.02-2.6-2.95-4.29c0.09-2.15-0.85-3.51-2.79-4.35c-0.62-0.27-1.16-0.77-1.67-1.23
			c-1.87-1.65-3.73-1.86-5.76-0.46c-0.87,0.61-1.7,0.68-2.71,0.54c-1.05-0.15-2.15-0.17-3.2-0.03c-0.99,0.13-1.84,0.13-2.76-0.38
			c-1.11-0.61-2.37-0.96-3.51-1.52c-0.86-0.42-1.41-1.11-1.1-2.21c1.79-0.89,4.05-0.68,5.85-2.57c-1.53-0.2-2.75-0.37-3.97-0.53
			c-1.33-0.18-2.66-0.34-3.98-0.54c-0.25-0.04-0.48-0.19-0.72-0.26c-0.62-0.19-0.71-0.66-0.69-1.21c0.03-0.62,0.35-0.93,0.96-0.97
			c3.19-0.23,6.2-1.33,9.33-1.85c0.63-0.1,1.28-0.07,1.92-0.14c0.87-0.09,1.74-0.22,2.61-0.34c0.29-1.14,0.21-2.01-0.28-2.93
			c-0.55-1.03-0.56-2.08,0.42-2.98c0.37-0.34,0.79-0.8,0.85-1.25c0.08-0.56-0.05-1.26-0.36-1.71c-0.18-0.26-1.04-0.37-1.33-0.17
			c-1.11,0.78-1.96,0.26-2.77-0.4c-1.08-0.87-2.1-1.24-3.49-0.52c-0.79,0.41-1.84,0.34-2.78,0.45c-1.01,0.11-2.06,0.03-3.02,0.3
			c-1.42,0.4-2.21-0.37-2.91-1.3c-0.74-0.98-0.39-2.1,0.32-2.83c1.08-1.12,1.64-2.19,1.11-3.76c-0.12-0.35,0.25-0.94,0.53-1.33
			c0.33-0.46,0.82-0.81,1.21-1.23c1.32-1.43,1.59-2.28,1.44-4.48c-1.69-0.53-3.21,0.36-4.79,0.68c-2.51,0.51-4.35,2.28-6.45,3.56
			c-0.71,0.43-1.49,1.14-1.29,2.37c0.16,1.03-0.37,1.89-1.35,2.5c-0.61,0.38-1.12,1.01-1.5,1.63c-0.64,1.04-1.35,1.82-2.45,2.52
			c-1.63,1.03-3.2,2.01-5.08,2.56c-0.86,0.25-0.94,1.12-0.78,1.95c0.11,0.56,0.3,1.12,0.3,1.68c-0.01,1.19-1.02,1.78-1.72,0.93
			c-1.61-1.95-4.02-2.11-6.05-3.11c-0.17-0.08-0.39-0.08-0.54-0.18c-0.99-0.66-2.45-1.14-2.84-2.07c-0.61-1.46-0.8-3.17-0.27-4.88
			c0.7-2.24,1.79-4.09,3.88-5.26c0.11-0.06,0.2-0.16,0.3-0.24c1.47-1.35,3.01-2.22,5.18-1.58c0.9,0.27,2.02-0.12,3.02-0.32
			c1.31-0.26,2.59-0.64,3.95-0.98c0.8-2.12,0.5-2.94-1.56-3.81c-2.3-0.98-4.58-1.99-6.91-2.87c-2.59-0.98-5.27-1.65-8.07-0.96
			c-0.59,0.15-1.14,0.49-1.71,0.73c-2.4,1.02-4.31,2.67-6.09,4.54c-0.68,0.71-1.66,1.15-2.55,1.62c-0.67,0.36-1.81-0.26-2.45-1.4
			c-0.56-1-1.31-1.64-2.32-2.17c-1.16-0.6-2.21-0.56-3.3-0.05c-1.16,0.54-2.27,0.83-3.62,0.85c-1.34,0.02-2.99,0.7-3.93,1.65
			c-1.21,1.22-2.67,1.89-4.02,2.81c-0.32,0.22-0.66,0.38-0.98,0.6c-0.99,0.68-1.2,1.88-0.46,2.78c0.24,0.29,0.6,0.48,0.88,0.74
			c0.51,0.48,1.08,0.93,0.82,1.79c-0.26,0.85-0.79,1.25-1.66,1.33c-1.49,0.13-2.65,0.94-3.61,2.01c-1.29,1.43-3.02,1.85-4.78,2.22
			c-0.25,0.05-0.51,0.03-0.77,0.01c-1.77-0.13-2.51-1.57-1.41-2.95c0.86-1.08,1.51-2.2,1.75-3.56c0.22-1.23-0.22-1.84-1.49-1.88
			c-2.12-0.05-4.23-0.01-6.49-0.01c-0.26,1.95-0.89,3.59-3.18,3.1c-1.86,1.97-3.12,4.27-5.49,5.5c-1.03,0.53-1.56,1.42-1.81,2.56
			c-0.51,2.35-0.65,2.44-3.13,2.85c0,0.45-0.11,0.97,0.02,1.42c0.46,1.51,0.13,2.92-0.43,4.3c-0.48,1.17-0.3,2.33-0.27,3.55
			c0.06,2.43,1.09,4.21,2.6,5.97c0.99,1.15,1.67,2.57,2.4,3.92c0.22,0.41,0.26,1,0.2,1.48c-0.16,1.19,0.25,2.17,1.03,2.96
			c0.8,0.8,1.09,1.51,0.29,2.49c-0.26,0.32-0.29,0.82-0.42,1.24c0.79,0.94,1.77,1.35,2.89,1.5c0.44,0.06,0.91,0.08,1.31,0.26
			c0.61,0.27,0.82,0.77,0.47,1.42c-0.61,1.15-1.89,1.8-3.21,1.51c-1.99-0.44-3.95-0.98-5.95-1.4c-0.73-0.15-1.5-0.08-2.26-0.06
			c-1.41,0.04-2.82,0.18-4.22,0.15c-1.27-0.03-1.65-0.51-1.74-1.81c-0.14-2.12,0.41-3.31,2.36-4.76c-1.19-0.73-2.22-1.66-3.42-2.04
			c-2.21-0.7-3.38-2.12-3.92-4.28c-0.17-0.66-0.38-1.51-0.86-1.86c-1.64-1.18-1.97-2.98-2.37-4.69c-0.45-1.94-1.5-3.34-3.1-4.56
			c-3.49,1.47-7.16,1.04-10.8,0.99c-1.17-0.01-2.24,0.15-3.34,0.65c-1.91,0.86-4,0.79-6.04,0.52c-1.64-0.21-2.58,0.21-3.28,1.63
			c-0.79,1.58-0.93,3.43-2.2,4.85c-0.64,0.72,0.09,2.58,1.04,3.44c1.37,1.24,1.45,1.62,0.69,3.3c-0.37,0.81-0.72,1.63-1.07,2.45
			c-0.04,0.09,0.06,0.24,0.11,0.44c0.75,0.21,1.49,0.23,2.07-0.44c0.82-0.96,1.61-1.95,2.39-2.95c0.67-0.86,1.28-1.69,2.47-1.98
			c1.04-0.26,2-0.82,2.97-1.3c0.72-0.35,1.37-0.6,2.15-0.05c0.33,0.23,0.86,0.28,1.29,0.23c1.81-0.19,3.17,0.95,4.6,1.67
			c0.94,0.47,1.68,1.61,2.2,2.6c1.2,2.3,2.38,4.65,3.24,7.09c0.54,1.53,0.59,3.26,0.69,4.91c0.08,1.44,0.79,2.55,1.63,3.57
			c0.8,0.97,1.98,1.03,3.17,1.05c2.83,0.05,5.2,3.17,4.37,5.88c-0.22,0.72-0.9,1.42-1.55,1.87c-0.96,0.66-1.21,1.41-0.86,2.45
			c0.06,0.18,0.11,0.37,0.13,0.56c0.28,2.23-0.19,3.12-2.18,4.22c-1.84,1.02-1.9,1.24-1.04,3.15c0.6,1.34,1.17,2.7,1.74,4.06
			c0.51,1.19,0.64,2.31-0.28,3.43c-0.39,0.47-0.55,1.14-0.79,1.67c0.36,1.38,1.53,1.86,2.53,1.8c3.09-0.19,4.69,1.75,6.08,3.94
			c0.81,1.28,1.84,1.88,3.27,1.94c1.35,0.05,2.7,0.02,4.04,0.11c1.22,0.09,2.09-0.35,2.78-1.33c0.35-0.51,0.8-0.95,1.28-1.5
			c-0.96-0.88-2.02-1.62-2.79-2.6c-2.19-2.78-3.18-5.97-2.51-9.5c0.14-0.74,0.79-1.44,1.34-2.03c0.58-0.63,0.79-1.12,0.51-2.02
			c-0.48-1.58-0.75-3.24-1-4.88c-0.18-1.22-0.01-2.34,1.53-2.64c0.26-0.05,0.47-0.4,0.69-0.6c-0.03-0.26-0.01-0.47-0.09-0.63
			c-0.7-1.38-0.69-2.64,0.34-3.91c0.37-0.46,0.46-1.18,0.58-1.8c0.35-1.75,1.2-2.44,2.88-2.21c1.89,0.25,3.68-0.16,5.48-0.63
			c0.84-0.22,1.74-0.27,2.62-0.27c0.82,0,1.65,0.13,2.47,0.25c2.23,0.31,3.55-0.97,4.75-2.61c-0.65-0.96-1.5-0.89-2.25-0.51
			c-2.18,1.13-4.12,0.31-6.04-0.64c-0.38-0.19-0.71-0.55-0.94-0.91c-0.72-1.1-0.52-1.75,0.66-2.28c0.35-0.15,0.73-0.27,1.1-0.3
			c2.47-0.24,4.68-1.09,6.63-2.64c0.28-0.22,0.71-0.43,1.04-0.39c1.29,0.17,2.33-0.5,3.48-0.84c1.08-0.32,2.28-0.52,3.38-0.37
			c2.14,0.28,4.06-0.56,6.02-1c1.13-0.25,2.14-1.32,3.05-2.18c1.34-1.27,2.54-2.7,3.82-4.04c0.56-0.59,1.06-1.46,2.05-1.12
			c0.97,0.33,1.05,1.21,1.25,2.15c0.45,2.12,2.05,3.36,4.04,3.93c1.91,0.54,3.39,1.73,4.88,2.89c0.37,0.29,0.52,1.2,0.37,1.71
			c-0.12,0.41-0.83,0.65-1.28,0.96c-0.05,0.03-0.13,0.03-0.19,0.02c-2.55-0.74-5.08,0.45-7.61,0.14c-2.58-0.31-4.67,0.7-6.43,2.38
			c-1.65,1.58-3.53,2.22-5.73,2.2c-1.58-0.01-3.19-0.15-4.75,0.69c0.09,0.37,0.15,0.74,0.27,1.09c1.18,3.58-0.36,6.65-1.95,9.64
			c-0.53,1-0.67,1.81-0.42,2.88c0.44,1.88,0,2.89-1.33,3.63c-0.71,0.4-1.4,0.6-2.13-0.01c-1.01-0.83-2.05-0.77-3.22-0.2
			c-1.19,0.58-1.68,0.35-2.45-0.7c-0.95-1.3-1.4-1.45-2.84-0.89c-0.59,0.23-1.18,0.49-1.74,0.78c-1.06,0.55-1.19,1.7-0.29,2.49
			c0.29,0.25,0.63,0.44,0.94,0.67c0.55,0.42,1.08,1.17,1.64,1.2c0.54,0.03,1.1-0.72,1.68-1.06c1.17-0.68,2.38-0.6,3.42,0.19
			c0.98,0.74,1.87,1.33,3.14,0.71c0.24-0.12,0.64-0.01,0.92,0.1c1.84,0.72,3.74,1.33,5.04,2.98c0.55,0.7,1.21,1.22,2.17,1.47
			c0.67,0.17,1.46,0.76,1.74,1.38c0.63,1.37,1.07,2.86,1.39,4.34c0.09,0.39-0.45,0.99-0.83,1.37c-0.3,0.31-0.79,0.42-1.17,0.64
			c-1.05,0.6-1.15,0.95-0.63,2.01c0.46,0.94,1.29,1.4,1.98,0.77c1.1-1,2.32-0.9,3.59-1.01c0.42-0.04,0.93-0.2,1.2-0.49
			c1.38-1.48,2.77-1.33,4.25-0.19c0.75,0.58,1.58,0.43,2.38,0.14c1.08-0.4,1.31-0.95,0.73-1.91c-0.89-1.49-2.09-2.59-3.95-2.66
			c-0.32-0.01-0.65,0.01-0.96-0.05c-1.93-0.41-2.6-2.14-1.58-3.82c0.89-1.47,1.62-3.03,2.5-4.51c0.45-0.75,1.01-1.45,1.62-2.07
			c0.96-0.97,1.02-1.32,0.13-2.42c-1.6-1.96-1.6-3.16,0.06-5.05c0.34-0.39,0.74-0.72,1.09-1.09c0.35-0.36,0.68-0.75,1.04-1.15
			c-0.13-0.35-0.24-0.65-0.35-0.94c-0.55-1.47-0.14-2.23,1.46-2.26c1.32-0.03,2.65,0.23,3.97,0.39c0.43,0.05,0.86,0.19,1.31,0.3
			c0.53-0.78,0.98-1.53,1.51-2.23c1.08-1.44,2.45-1.97,3.8-1.53c1.04,0.34,2.35,2.21,2.43,3.46c0.01,0.13,0,0.26,0,0.39
			c0.02,0.88-0.18,1.83,0.7,2.47c1.06,0.77,2.23,1.27,3.54,1.28c0.31,0,0.68-0.3,0.93-0.55c1.89-1.88,4.41-2.53,6.77-3.48
			c1.01-0.41,1.94,0.05,2.19,0.98c0.41,1.54,0.67,3.11,0.98,4.68c0.21,1.08-0.31,1.77-1.11,2.46c-2.1,1.81-4.55,1.85-7.07,1.57
			c-0.4-0.04-0.78-0.4-1.13-0.66c-1.71-1.23-2.63-1.19-4.27,0.09c-0.54,0.42-1.21,0.69-1.84,0.99c-1.32,0.64-1.52,1.28-0.53,2.32
			c0.84,0.88,1.39,1.82,1.48,3.19c-0.68,0.62-1.34,1.48-2.2,1.95c-1.24,0.67-1.59,1.74-1.89,2.94c-0.13,0.55-0.3,1.12-0.59,1.59
			c-0.71,1.14-1.48,2.11-0.7,3.65c0.48,0.94-0.9,2.57-2.28,3.2c-1.96,0.89-4,1.26-6.14,1.16c-0.64-0.03-1.28-0.05-1.93-0.04
			c-1.35,0.03-2.35,0.61-2.76,1.95c-0.5,1.6-1.45,2.45-3.22,2.39c-2.21-0.08-4.42-0.04-6.64,0.02c-0.75,0.02-1.52,0.16-2.24,0.38
			c-1.26,0.39-2.45,0.5-3.75,0.03c-1.32-0.48-2.71-0.61-4.16-0.36c-0.66,0.11-1.51-0.2-2.13-0.57c-1.21-0.72-2.27-1.02-3.54-0.09
			c-1.22,0.89-2.57,0.88-3.96,0.2c-0.55-0.27-1.22-0.34-1.85-0.41c-0.78-0.1-1.36,0.19-1.61,1.03c-0.15,0.49-0.34,1-0.66,1.38
			c-0.34,0.4-0.8,0.77-1.29,0.96c-1.71,0.69-3.47,1.26-5.18,1.95c-0.38,0.15-0.7,0.54-0.98,0.87c-0.94,1.11-1.86,2.24-2.97,3.59
			c0.68,0.56,1.38,1.28,2.22,1.79c2.5,1.52,3.77,5.21,2.59,7.91c-0.33,0.76-0.73,1.52-1.25,2.16c-1.22,1.48-2.32,2.99-3.18,4.73
			c-0.7,1.43-2.02,2.26-3.76,2.19c-0.73-0.03-1.66-0.31-1.98,0.68c-0.31,0.97-0.09,1.95,0.67,2.66c0.6,0.57,1.37,0.95,1.97,1.53
			c0.44,0.42,1.03,1.04,0.99,1.52c-0.15,1.91,0.68,3.79,0.08,5.7c-0.19,0.6-0.25,1.25-0.41,1.86c-0.36,1.35-0.04,1.91,1.34,2.07
			c0.71,0.08,1.53-0.04,1.83,0.75c0.24,0.62,0.36,1.36,0.28,2.02c-0.19,1.46-0.41,2.94-0.86,4.33c-0.38,1.16-0.14,2.06,0.64,2.8
			c0.98,0.93,1.38,2.05,1.72,3.32c0.23,0.87,0.86,1.69,1.46,2.4c0.58,0.67,1.35,1.17,2.05,1.72c1.47,1.14,1.71,2.23,0.66,3.77
			c-1.25,1.85-2.6,3.63-3.86,5.47c-0.82,1.2-1.59,2.44-2.32,3.71c-0.74,1.28-1.59,1.56-2.76,0.63c-0.79-0.62-1.46-1.41-2.12-2.18
			c-1.05-1.22-1.33-1.31-2.66-0.39c-0.9,0.62-1.76,0.67-2.76-0.12c-1.31,1.23-2.63,2.5-3.98,3.72c-0.63,0.57-1.48,0.31-2.11-0.57
			c-0.66-0.92-1.39-1.8-1.96-2.77c-0.33-0.58-0.51-1.3-0.56-1.98c-0.16-1.85-0.09-3.72-0.37-5.54c-0.18-1.16-0.81-2.25-1.24-3.38
			c-0.31-0.83-0.67-1.66-0.9-2.51c-0.28-1.04-0.4-2.13-0.68-3.18c-0.38-1.41-0.35-2.66,0.93-3.62c0.68-0.51,0.88-1.22,0.85-2.04
			c-0.06-1.66-0.11-3.23-1.19-4.72c-0.56-0.77-0.61-2.09-0.48-3.11c0.1-0.85-0.05-1.48-0.44-2.16c-0.69-1.22-1.39-2.44-2.02-3.69
			c-0.88-1.73-0.64-2.26,0.93-3.3c1.27-0.84,2.42-1.84,3.62-2.79c0.7-0.55,0.89-1.24,0.43-2.04c-0.61-1.05-0.56-2.02,0.05-3.08
			c0.35-0.61,0.22-1.22-0.32-1.9c-1.49-1.9-2-4.15-0.37-5.9c1.16-1.26,1.45-2.78,0.55-4.4c-0.42-0.75-0.39-1.44-0.04-2.34
			c0.32-0.83-0.09-1.94-0.19-2.93c-0.01-0.11-0.15-0.21-0.24-0.29c-1.11-0.99-2.31-0.45-3.44-0.1c-1.01,0.31-1.74,1.22-1.5,2.15
			c0.31,1.21-0.37,1.8-1.08,2.43c-1.41,1.25-2.87,2.45-4.39,3.74c0.06,0.12,0.13,0.36,0.28,0.55c1.49,1.9,1.46,3.71,0.42,5.8
			c-1.14,2.31-2.86,3.47-5.34,3.79c-0.65,0.08-1.24,0.59-1.93,0.94c0.36,1.01,1.33,0.94,2.05,1.1c2.24,0.52,3.37,1.76,3.28,3.97
			c-0.07,1.65-0.26,3.3-0.4,4.95c-0.01,0.06,0,0.14-0.03,0.19c-1.29,2.25-1.73,4.77-2.21,7.25c-0.3,1.55-0.47,3.18-0.3,4.74
			c0.15,1.35-0.08,2.47-0.62,3.66c-0.44,0.98-0.78,2.02-1,3.07c-0.23,1.06-0.36,2.15-0.36,3.23c0,0.73,0.08,1.6,0.47,2.16
			c1.97,2.78,2.38,6.2,3.89,9.17c0.25,0.49,0.24,1.13,0.26,1.7c0.14,3.81,1.44,7.5,0.9,11.41c-0.29,2.08,0.47,4.14,1.89,5.88
			c1.3,1.6,1.63,3.61,1.65,5.6c0.02,1.4,0.29,2.59,1.14,3.73c1.4,1.88,1.07,4,0.41,6.04c-0.3,0.95-1.08,1.49-2.17,1.65
			c-1.3,0.19-2.6,0.37-3.89,0.84c-0.96,0.35-2.37-0.12-3.44-0.55c-1.53-0.62-2.93-1.51-4.67-1.59c-0.65-0.03-1.3-0.52-1.9-0.87
			c-1.27-0.72-2.5-1.52-3.76-2.24c-1.01-0.58-1.41-1.73-0.63-2.79c0.66-0.9,1.56-1.73,2.53-2.25c0.71-0.38,1.29-0.63,1.57-1.46
			c0.35-1.01,0.56-1.96,0.06-2.97c-0.34-0.69-0.76-1.35-0.98-2.07c-0.18-0.58-0.22-1.26-0.12-1.86c0.36-2.05-0.14-2.62-2.28-2.46
			c-0.24,0.02-0.48-0.09-0.8-0.16c-0.06-0.34-0.13-0.64-0.17-0.95c-0.17-1.44-1.1-2.05-2.3-1.33c-1.02,0.62-1.97,1.37-1.94,2.86
			c0.02,1.17-0.37,2.29,0.6,3.38c0.55,0.61,0.16,1.47-0.66,1.91c-1,0.54-1.98,1.12-3,1.61c-2.38,1.15-4.15,0.02-3.64-2.58
			c0.37-1.86-0.15-3.56-0.26-5.31c-0.09-1.38,0.01-2.68,0.49-3.91c0.31-0.8,0.27-1.35-0.08-2.13c-0.45-1.02-0.6-2.21-0.74-3.34
			c-0.1-0.8,0.51-1.32,1.33-1.27c0.37,0.02,0.73,0.19,1.05,0.28c0.89-0.8,1.32-1.64,0.75-2.76c-0.11-0.21-0.11-0.53-0.04-0.76
			c0.7-2.05-0.05-4.06-0.12-6.09c-0.04-1.19-0.43-2.33-0.97-3.46c-0.64-1.36-0.95-2.91-1.24-4.41c-0.11-0.56,0.07-1.36,0.44-1.77
			c0.63-0.71,0.66-1.48,0.71-2.31c0.08-1.53,0.27-3.05,0.3-4.57c0.01-0.68-0.14-1.42-0.42-2.04c-0.46-1.03-0.41-2.04-0.47-3.13
			c-0.15-2.82,0.32-5.8-1.37-8.37c-0.39-0.59-0.85-1.12-1.31-1.65c-0.56-0.66-0.74-1.46-0.3-2.14c0.76-1.17,1.54-2.4,2.59-3.29
			c0.86-0.73,2.11-1,3.45-1.6c0.27-0.55-0.27-1.19-0.69-1.79c-0.54-0.79-1.19-1.51-1.8-2.24c-1.22-1.46-1.18-2.18,0.05-3.7
			c0.83-1.04,1.67-2.1,2.33-3.25c0.81-1.41,0.3-4.35-0.83-5.56c-0.48-0.52-1.09-0.95-1.45-1.53c-0.39-0.62-0.75-1.36-0.81-2.08
			c-0.2-2.42-0.34-4.86-0.36-7.29c-0.01-1.07,0.26-2.16,0.51-3.21c0.31-1.28,0.15-2.4-0.77-3.39c-0.26-0.28-0.39-0.68-0.67-0.93
			c-1.98-1.76-1.44-3.94-0.99-6.08c0.08-0.38,0.48-0.71,0.78-1.02c0.44-0.46,1.01-0.81,1.37-1.32c0.75-1.06,0.61-1.77-0.44-2.58
			c-2.25-1.75-2.62-4.27-2.88-6.85c-0.02-0.18,0.01-0.43,0.13-0.55c1.54-1.71,0.58-3.43-0.18-4.96c-0.75-1.52-0.47-2.79,0.43-3.93
			c0.78-0.98,1.08-2,1.06-3.19c-0.02-1.03-0.02-2.05-0.02-3.08c0-0.58-0.12-1.22,0.09-1.72c0.92-2.16,0.63-4.42,0.73-6.65
			c0.03-0.57,0.12-1.14,0.21-1.71c0.25-1.47,0.3-2.91-0.41-4.31c-0.37-0.73-0.57-1.56-0.8-2.36c-0.1-0.35-0.22-0.8-0.09-1.11
			c0.68-1.64,1.33-3.31,2.21-4.85c0.61-1.08,0.93-2.09,0.55-3.27c-0.43-1.32-0.79-2.69-1.37-3.94c-0.7-1.52-0.3-3.03-0.27-4.55
			c0.03-1.85,0.37-3.64,0.89-5.43c0.29-0.98-0.04-2.14-0.06-3.21c-0.01-0.49-0.15-1.25,0.1-1.44c1.33-0.97,1.98-2.72,3.69-3.24
			c0.78-0.24,1.22-0.76,1.56-1.55c0.58-1.38,1.5-2.53,2.97-3.11c0.35-0.14,0.69-0.37,0.94-0.65c1.28-1.4,2.57-2.81,3.79-4.27
			c0.63-0.76,0.45-1.34-0.36-2.11c-0.4-0.39-0.78-0.84-1.06-1.32c-0.39-0.69-0.27-1.26,0.42-1.82c0.83-0.68,1.58-1.49,2.21-2.36
			c1.06-1.47,3.37-1.52,4.37-0.01c0.1,0.16,0.11,0.38,0.21,0.54c0.6,0.94,1.08,1.07,2.03,0.53c0.38-0.22,0.73-0.5,1.12-0.78
			c1.79,0.91,3.64,1.06,5.59,1.01c2.29-0.06,4.6,0.25,6.9,0.25c1.12,0,2.23-0.37,3.35-0.53c0.75-0.11,1.53-0.31,2.27-0.22
			c3.61,0.46,7.15,0.19,10.65-0.72c0.49-0.13,1-0.29,1.5-0.27c2.3,0.1,4.6,0.25,6.9,0.42c1.5,0.1,2.92-0.11,4.32-0.67
			c1.26-0.51,2.54-0.95,3.81,0.05c0.22,0.17,0.69,0.29,0.9,0.18c1.3-0.71,2.49-0.1,3.68,0.27c0.94,0.29,1.77,0.28,2.75,0
			c1.88-0.54,3.81-0.32,5.67,0.32c2.45,0.85,4.88,1.6,7.56,1.41c1.14-0.08,1.95-0.51,2.73-1.15c1.9-1.56,3.11-1.73,5.14-0.34
			c2.22,1.53,4.64,1.29,7.1,1.11c0.87-0.07,1.17-0.62,1.47-1.29c0.46-1.02,0.98-2.01,1.52-3.1c0.89,0.2,1.63,0.21,2.22,0.53
			c1.48,0.8,3.06,1.17,4.69,1.47c0.55,0.1,1.15,0.32,1.56,0.68c1.75,1.51,3.74,1.13,5.63,0.6c1.01-0.28,1.88-0.68,2.91-0.17
			c1.5,0.74,2.81-0.02,4.13-0.62c0.93-0.42,1.82-0.91,2.75-1.33c1-0.45,1.92-0.92,2.47-2c0.54-1.06,1.17-1.24,2.19-0.56
			c1.41,0.94,2.78,0.89,4.19,0.23c1.25-0.59,2.38-0.66,3.67-0.04c1.02,0.49,2.13,0.68,3.32,0.15c0.65-0.29,1.53-0.33,2.25-0.18
			c2.81,0.55,5.58,1.23,8.38,1.83c1.92,0.41,3.91,0.59,5.76,1.2c1.56,0.51,3.09,0.88,4.7,0.65c2.21-0.31,4.46-0.54,6.6-1.14
			c2.71-0.76,5.18-0.51,7.53,0.97c1.03,0.64,2.05,1.31,3.01,2.05c1.03,0.79,2.08,0.84,3.23,0.34c0.34-0.15,0.75-0.43,1.06-0.35
			c1.8,0.45,3.56,0.08,5.33-0.06c0.53-0.04,1.11,0.2,1.64,0.4c2.2,0.85,4.32,1.67,6.85,1.32c2.56-0.36,5.2-0.16,7.81-0.17
			c0.34,0,0.75,0.18,1.01,0.41c1.62,1.47,3.39,2.69,5.46,3.45c0.41,0.15,0.83,0.35,1.26,0.37c1.23,0.06,2.22,0.37,2.76,1.65
			c0.16,0.38,0.79,0.6,1.24,0.81c0.84,0.38,1.46,0.8,1.84,1.78c0.39,1.02,0.71,1.75-0.01,2.81c-0.7,1.01,0.12,2.38,1.63,2.93
			c1.84,0.68,3.72,1.25,5.63,1.89c0.57,1.65,0.15,3.28-0.24,5.01c2.09,0.17,2.79,1.48,3.02,3.22c0.09,0.69,0.39,1.36,0.46,2.06
			c0.06,0.61,0.02,1.26-0.13,1.86c-0.23,0.91-0.65,1.78-0.85,2.7c-0.1,0.46-0.05,1.08,0.19,1.46c1,1.62,1.41,3.4,1.64,5.24
			c0.05,0.37,0.19,0.76,0.39,1.07c0.61,0.95,0.56,1.76,0.09,2.85c-0.67,1.55-0.27,3.14,0.94,4.43c1.27,1.35,1.24,1.34,0.12,2.75
			c-0.8,1.02-1.29,2.14-1.3,3.52c-0.02,3.26-0.12,6.52-0.29,9.77c-0.03,0.65-0.42,1.32-0.77,1.91c-0.29,0.48-0.83,0.81-1.16,1.28
			c-0.8,1.11-1.88,1.22-3.09,1.01c-2.2-0.39-4.39-0.83-6.6-1.16c-1.26-0.18-2.34-0.61-3.26-1.49c-0.37-0.35-0.75-0.73-1.19-0.96
			c-1.04-0.53-1.77-1.17-1.72-2.5c0.02-0.48-0.42-0.97-0.75-1.67c-0.39,0.46-0.58,0.7-0.78,0.93c-1.01,1.16-2.5,0.99-2.92-0.45
			c-0.29-1.02-0.82-1.13-1.68-1.09c-2.12,0.1-4.06,0.78-5.98,1.54c0,0.14,0,0.28,0,0.42c0.37,0.1,0.76,0.33,1.1,0.27
			c0.75-0.14,1.48-0.41,2.2-0.66c2.83-0.97,4.22-0.25,4.51,2.74c0.14,1.4,0.57,2.42,1.53,3.36c0.29,0.29,0.37,0.79,0.57,1.18
			c1.73,3.28,2.58,6.85,3.47,10.42c0.23,0.93,0.48,1.88,0.91,2.73c0.79,1.57,0.59,3.17,0.12,4.68c-0.53,1.73-2.15,2.43-3.71,3.06
			c-0.35,0.14-0.75,0.14-1.13,0.24c-0.93,0.23-1.42,0.82-1.39,1.8c0.01,0.32,0.07,0.64,0.09,0.96c0.12,1.82-0.15,2.12-1.95,2.71
			c-1.15,0.37-2.27,0.85-3.38,1.34c-1.76,0.78-3.56,0.51-5.28,0.07c-1.66-0.43-2.6,0.39-3.36,1.54c-0.8,1.21-1.42,2.53-2.1,3.78
			c1.36,1.81,3.3,2.48,5.33,1.8c0.84-0.28,1.6-0.28,2.42,0.01c1.26,0.45,2.55,0.81,3.82,1.25c1.08,0.38,2.1,0.75,2.81,1.85
			c0.7,1.1,1.86,1.03,2.65-0.04c0.9-1.23,2.26-1.65,3.57-2.12c1.08-0.39,2.23-0.6,3.05-1.51c0.08-0.09,0.21-0.16,0.33-0.18
			c1.58-0.28,2.97-0.72,2.82-2.8c-0.02-0.2,0.53-0.49,0.85-0.65c0.21-0.11,0.5-0.05,0.76-0.07c1.39-0.14,2.77-0.28,4.23-0.42
			c0.6,1.59,1.56,2.53,3.1,3.04c1.47,0.49,2.02,1.76,1.26,3.31c-1.01,2.02-0.78,3.97-0.3,5.97c0.17,0.7,0.02,1.17-0.4,1.74
			c-0.85,1.16-1.57,2.42-2.37,3.68c2.02,1.54,3.13,3.37,3.52,5.73c0.22,1.36,0.05,2.55-0.63,3.66c-0.57,0.93-0.59,1.86-0.6,2.92
			c-0.01,1.7-0.38,3.39-0.61,5.09c-0.09,0.69-0.19,1.38-0.32,2.07c-0.18,0.94-0.21,1.96-0.62,2.78c-0.87,1.75-0.97,3.54-0.78,5.41
			c0.15,1.46-0.57,2.59-1.93,3.08c-2.2,0.79-2.63,2.65-1.02,4.34c0.17,0.18,0.42,0.37,0.46,0.58c0.34,1.77,0.64,3.56,1.02,5.71
			c2.2,1.54,1.8,4,1.09,6.54c-0.2,0.73-0.41,1.46-0.48,2.21c-0.1,1.01,0.21,1.79,1.18,2.41c1.48,0.94,1.36,1.7-0.17,2.59
			c-0.33,0.19-0.65,0.42-0.9,0.7c-0.72,0.84-1.48,1.55-2.61,1.84c-1.12,0.29-1.5,1.11-1.14,2.22c3.09,0.73,4.24,1.23,3.98,5.09
			c-0.14,2.1-0.23,4.22-0.28,6.32c-0.02,0.63,0.01,1.33,0.27,1.88c0.47,0.98,0.36,1.98,0.46,2.99c0.15,1.5-0.25,2.85-0.99,4.02
			c-0.73,1.18-0.46,2.09,0.32,2.93c0.65,0.7,0.95,1.44,1.08,2.38c0.26,1.96,0.72,3.9,1.01,5.85c0.13,0.88,0.06,1.79,0.1,2.68
			c0.03,0.61,0.09,1.22,0.15,1.83c0.02,0.19,0.22,0.43,0.15,0.54c-1.18,1.91,0,4.5-1.91,6.27c-0.99,0.91-1.28,2.14-0.23,3.44
			c0.32,0.4,0.15,1.21,0.16,1.84c0.01,1.07,0.01,2.15-0.02,3.22c-0.01,0.63-0.06,1.27-0.12,1.9c-0.09,0.89-0.23,1.77-0.34,2.65
			c-0.14,1.1-0.6,1.34-1.69,0.97c-2.15-0.72-4.27-1.12-6.53-0.19C313.61,280.22,312.57,279.95,311.43,279.95z M289.98,66.64
			c-0.86-0.34-1.58,0.09-2.29,0.55c-0.54,0.35-1.03,0.97-1.6,1.03c-2,0.22-2.73,1.69-3.41,3.21c-0.37,0.82-0.99,1.13-1.79,1.23
			c-0.51,0.06-1.16-0.16-1.51,0.08c-1.83,1.26-3.72,0.51-5.62,0.39c-2.02-0.13-3.86,0.66-5.56,1.73c-0.59,0.37-1.24,0.87-1.87,0.89
			c-3.14,0.08-3.73,2.96-5.34,4.71c-0.1,0.11-0.04,0.37-0.05,0.56c-0.15,2.47,1.43,3.98,3.93,3.77c0.38-0.03,0.94-0.26,1.1-0.09
			c1.08,1.16,2.39,0.49,3.59,0.52c1.21,0.03,2.44,0.02,3.64-0.14c1.77-0.23,3.51-0.7,5.29-0.88c1.42-0.14,2.82,0.13,3.77,1.41
			c0.57,0.77,1.15,1.53,1.76,2.27c1.4,1.71,2.54,3.75,5.3,3.54c0.86-0.07,1.88,0.35,2.03,1.42c0.2,1.38,0.4,2.82,0.25,4.19
			c-0.11,0.99-0.03,2.11-1.07,2.95c-0.83,0.68-0.08,2.11,1.09,2.17c1.02,0.05,2.05-0.07,3.07-0.11c2.18-0.08,3.5-1.66,4.99-2.91
			c0.29-0.25,0.41-0.76,0.5-1.18c0.43-2.09,2.86-3.74,4.98-3.26c0.82,0.19,1.37,0.04,1.78-0.66c-0.92-2.65,1.07-4.76,3.76-6.18
			c0.76-0.4,1.51-0.69,1.67-1.72c-1.12-0.43-2.21-0.91-3.34-1.26c-0.69-0.21-1.42-0.13-1.92,0.53c-0.26,0.35-0.47,0.74-0.55,0.87
			c-1.15-0.29-1.89-0.44-2.61-0.67c-1.21-0.39-2.38-0.91-3.61-1.22c-1.28-0.32-1.6-1.66-2.55-2.21c-1.93-1.11-2.81-3.09-4.2-4.65
			c-0.27-0.31-0.47-0.83-0.44-1.23c0.17-2.51-1.85-4.49-1.67-7c0.02-0.2-0.25-0.43-0.38-0.65
			C290.76,68.02,290.42,67.42,289.98,66.64z M101.81,140.46c1.1,1.11,2.05,2.38,3.28,3.24c1.86,1.29,2.97,2.89,3.33,5.12
			c0.2,1.25,0.83,1.67,2.05,1.44c1.11-0.21,2.18-0.7,3.26-1.08c1.13-0.4,2.24-1.13,3.37-1.17c1.33-0.04,2.27-0.5,2.89-1.5
			c0.63-1.01,1.45-1.36,2.54-1.4c0.64-0.03,1.29-0.06,1.9-0.21c0.73-0.18,1.53-0.35,2.13-0.77c0.87-0.62,1.58-1.46,2.36-2.21
			c0.85-0.82,0.69-1.79-0.37-2.31c-1.37-0.67-2.74-1.32-4.08-2.04c-0.87-0.46-1.64-0.44-2.52,0c-1.8,0.91-3.5,0.67-4.89-0.81
			c-0.86-0.91-1.52-2.02-2.23-3.08c-0.59-0.89-0.95-2.01-1.72-2.7c-1.21-1.09-1.55-2.37-1.29-3.8c0.26-1.41,0.33-2.73-0.02-4.14
			c-0.17-0.69,0.08-1.51,0.22-2.26c0.34-1.82,0.76-3.62,1.08-5.44c0.06-0.37-0.17-0.79-0.29-1.28c-0.53,0.16-0.88,0.28-1.24,0.38
			c-1.84,0.47-3.56,1.53-5.55,1.18c-0.77-0.14-1.54-0.46-2.09,0.34c-0.42,0.61-0.99,1.27-1.06,1.95c-0.23,2.34-1.13,4.44-2.09,6.53
			c-0.44,0.97-0.45,1.91-0.06,2.96c0.51,1.36,0.7,2.79,0.49,4.31c-0.26,1.88-0.43,3.82,1.03,5.47c0.33,0.37,0.27,1.19,0.21,1.78
			C102.41,139.44,102.08,139.89,101.81,140.46z M138.42,74.48c0.41,0.24,0.7,0.55,0.99,0.55c0.76,0.01,1.53-0.07,2.28-0.2
			c2-0.33,3.97-0.97,6.01-0.15c0.37,0.15,0.84,0.02,1.39,0.02c0-0.67,0.06-1.18-0.01-1.67c-0.13-0.92-2.19-2.9-2.76-2.51
			c-1.57,1.06-3.46,1.08-5.07,1.85C140.3,72.8,139.53,73.62,138.42,74.48z M116.24,61.31c0.28,1.09,0.9,0.99,1.45,0.96
			c1.74-0.11,3.45-0.05,5.12,0.54c0.5,0.17,1.12,0.06,1.68-0.01c1.01-0.12,2.01-0.28,3.01-0.47c1.21-0.23,2.47-0.39,3.36-1.62
			c-1.04-0.29-1.98-0.42-2.81-0.8c-2.54-1.19-4.91-1.11-7.2,0.59c-0.93,0.69-1.89,1.31-3.17,0.72
			C117.35,61.06,116.85,61.26,116.24,61.31z M310.37,99.9c0.05,1.06,0.56,1.72,1.39,2.2c1.51,0.88,3.08-0.06,4.62,0.17
			c0.12,0.02,0.3-0.22,0.41-0.37c0.47-0.61,0.39-2.43-0.11-3.09c-0.69-0.9-1.29-1.05-2.54-0.54
			C312.92,98.76,311.72,99.31,310.37,99.9z M149.19,57.71c0.04,0.18,0.07,0.35,0.11,0.53c0.73-0.03,1.65,0.2,2.16-0.15
			c1.37-0.94,2.49-0.48,3.76,0.13c0.95,0.46,1.87,1.08,3.07,0.87c1.19-0.21,2.41-0.27,3.62-0.37c0.62-0.06,1.12-0.22,1.17-1.06
			c-1.05-0.83-2.24-0.74-3.43-0.45c-1.46,0.35-2.88,0.48-4.31-0.21c-0.48-0.23-1.1-0.19-1.66-0.22c-0.61-0.03-1.23,0.04-1.84-0.01
			C150.77,56.68,149.84,56.84,149.19,57.71z M141.92,59.39c0,0.06,0.01,0.12,0.01,0.18c0.26,0,0.51,0.01,0.77,0
			c0.64-0.02,1.45,0.02,1.51-0.79c0.03-0.43-0.46-0.99-0.85-1.33c-0.85-0.76-1.8-1.01-2.98-0.61c-1.32,0.44-2.73,0.61-4.07,0.98
			c-0.29,0.08-0.71,0.6-0.66,0.79c0.1,0.36,0.48,0.67,0.81,0.91c0.18,0.13,0.5,0.07,0.75,0.06
			C138.78,59.52,140.35,59.45,141.92,59.39z M141.59,163.62c-1.15-0.82-2.34-0.9-3.19-0.31c-0.81,0.57-1.55,1.19-2.49,1.6
			c-0.48,0.21-1.11,0.54-0.84,1.29c0.27,0.74,0.89,1.27,1.62,1c1.58-0.59,3.59-0.58,4.3-2.62
			C141.11,164.3,141.32,164.06,141.59,163.62z M180.19,143.65c-0.83-0.55-1.39-1.45-2.42-0.99c-1.48,0.67-2.98,0.94-4.6,0.69
			c-0.25-0.04-0.72,0.33-0.81,0.61c-0.1,0.28,0.04,0.83,0.26,0.98c0.39,0.26,0.92,0.4,1.4,0.43c0.86,0.05,1.74,0.07,2.59-0.05
			C177.87,145.12,179.35,145.34,180.19,143.65z M282.22,153.99c0.21,0.28,0.36,0.57,0.59,0.78c0.8,0.71,2.15,0.72,2.77,0.04
			c0.63-0.68,0.38-1.65-0.62-2.46c-0.72-0.58-1.23-0.56-1.8,0.17C282.8,152.96,282.54,153.47,282.22,153.99z M264.3,140.7
			c-0.63-1.47-1.58-1.11-2.4-0.98c-0.5,0.08-1.06,0.35-0.86,1c0.18,0.62,0.62,1.16,1.39,0.9
			C263.05,141.39,263.62,141.03,264.3,140.7z M157.43,132.42c0.31,0.48,0.46,0.75,0.66,0.99c0.16,0.2,0.36,0.48,0.56,0.5
			c0.53,0.06,1.15,0.16,1.58-0.06c0.59-0.3,0.88-1.77,0.45-2.05c-0.41-0.27-1.05-0.35-1.55-0.26
			C158.61,131.63,158.14,132.04,157.43,132.42z M174.14,57.08c0.02-0.21,0.03-0.42,0.05-0.64c-1.11-0.08-2.25-0.02-3.31-0.28
			c-1.17-0.29-1.74,0.22-2.38,1.12c1.15,0.47,1.92-0.24,2.8-0.42C172.19,56.68,173.18,56.99,174.14,57.08z"/>
		<path class="st3" d="M270.51,316.27c0.48-1.31,0.98-2.4,1.27-3.55c0.24-0.98,0.31-2.02,0.33-3.03c0.04-2.16,0.5-2.62,2.63-2.4
			c1.74,0.18,2.86-0.53,3.51-2.23c0.51-1.34,1.17-1.85,2.57-1.86c1.67-0.02,3.34,0.02,5,0.05c0.89,0.02,2.84,1.47,3.11,2.28
			c0.2,0.62-0.08,1.05-1.09,1.74c1.23,0.37,2.52,0.9,3.85,1.13c1.3,0.22,2.78,0.49,3.96,0.09c1.87-0.63,3.6-0.35,5.2,0.3
			c2.84,1.15,5.39,0.49,7.9-0.76c1.85-0.92,4.44-0.44,5.72,1.2c1.05,1.35,1.97,1.44,3.35,0.39c1.07-0.81,2.16-1.58,3.29-2.4
			c0.48,0.18,0.96,0.35,1.43,0.54c2.45,0.98,2.97,2.42,1.77,4.89c-0.74,1.51-1.13,3.04-1.07,4.79c0.1,2.67-0.08,5.33-0.99,7.95
			c-0.6,1.74-0.96,3.66-0.66,5.58c0.24,1.58-0.35,2.91-1.27,4.09c-0.58,0.74-0.72,1.54-0.96,2.41c-0.48,1.81-0.48,3.86-2.05,5.25
			c-0.18,0.16-0.39,0.41-0.4,0.64c-0.1,1.77-1.36,2.21-2.77,2.71c-1.3,0.46-2.49,1.27-3.66,2.03c-0.88,0.57-1.15,1.53-1.06,2.54
			c0.07,0.78-0.15,1.37-0.76,1.86c-0.29,0.24-0.58,0.54-0.75,0.87c-1.27,2.52-3.56,3.15-6.09,3.27c-1.89,0.09-3.81,0.21-5.69,0.01
			c-2.32-0.24-3.83,1.18-5.55,2.23c-0.54,0.33-0.97,0.82-1.49,1.2c-1.42,1.03-2.92,0.78-4.37,0.13c-0.32-0.14-0.62-0.68-0.63-1.05
			c-0.03-0.75,0.12-1.52,0.23-2.27c0.14-0.97-0.57-1.92-1.54-2.02c-0.55-0.05-0.96,0.5-0.67,1.05c0.38,0.73,0.91,1.38,1.39,2.1
			c-0.43,1.26-1.45,1.71-2.61,1.97c-0.56,0.13-1.3,0.07-1.64,0.41c-1.57,1.56-3.52,1.25-5.42,1.34c-2.61,0.12-5.24,0.15-7.79,0.84
			c-1.1,0.3-2.25,0.24-3.37,0.32c-2.04,0.13-4.23-0.32-6.14,0.92c-0.33,0.22-0.88,0.29-1.27,0.21c-2.26-0.47-4.48,0.03-6.7,0.27
			c-2.78,0.3-5.47,1.23-8.28,1.3c-0.68,0.02-1.55,0.05-2.02-0.32c-1.48-1.16-3.16-1.16-4.78-0.9c-2.64,0.43-5.24-0.06-7.85-0.04
			c-3.58,0.03-7.15,0.12-10.67,0.91c-0.8,0.18-1.69,0.3-2.48,0.16c-2.25-0.39-4.43-0.37-6.6,0.41c-1.9,0.68-3.83,0.72-5.85,0.54
			c-2.55-0.23-5.13-0.07-7.7-0.13c-3.33-0.08-6.65-0.23-9.98-0.3c-1.28-0.02-2.56,0.21-3.83,0.17c-1.01-0.03-2.11-0.09-2.99-0.51
			c-2.19-1.07-4.59-1.18-6.89-1.58c-3.71-0.63-7.5-0.82-11.24-1.3c-0.99-0.13-1.93-0.64-2.9-0.98c-0.95-0.33-1.88-0.84-2.86-0.98
			c-2.63-0.37-5.08-1.26-7.52-2.26c-2.1-0.86-4.35-0.89-6.57-1.02c-2.35-0.14-4.71-0.1-6.83-1.39c-0.53-0.32-1.21-0.37-1.83-0.54
			c-1.35-0.37-2.67-0.73-3.67-1.88c-0.57-0.66-1.41-1.01-2.44-0.59c-0.55,0.23-1.3,0.22-1.9,0.07c-3.4-0.85-7-0.72-10.29-2.22
			c-1.31-0.6-2.82-0.92-4.26-1.02c-2.33-0.16-3.98-1.61-5.78-2.76c-0.39-0.25-0.58-0.98-0.65-1.51c-0.16-1.26-0.67-2.23-1.58-3.16
			c-0.95-0.97-1.75-2.1-2.09-3.57c-0.47-2.1-1.21-4.14-1.99-6.16c-0.76-1.97-0.82-3.91-0.72-6c0.09-2.01,1.22-3.01,2.46-4.2
			c1.25-1.2,2.08-2.72,2.34-4.47c0.2-1.29-0.56-2.19-1.37-3.02c-0.64-0.65-1.34-0.25-1.94,0.11c-0.66,0.39-1.19,0.95-2.08,0.49
			c-0.78-0.4-0.93-1.06-1.22-1.79c-0.9-2.24-0.76-4.66-1.36-6.93c-0.24-0.9-0.53-1.84-1.01-2.63c-1.15-1.88-0.61-3.14,1.59-3.49
			c0.39-0.06,0.74-0.35,1.11-0.53c-0.19-0.37-0.33-0.79-0.59-1.11c-0.27-0.34-0.71-0.56-0.98-0.91c-0.43-0.55-0.87-1.12-0.48-1.92
			c0.16-0.33,0.17-0.74,0.21-1.12c0.17-1.88,1.29-2.96,2.98-3.55c0.18-0.06,0.49-0.01,0.55-0.12c1.23-2.23,3.52-1.74,5.44-2.1
			c2.95-0.56,4.93-2.74,5.1-5.71c0.05-0.86,0.23-1.81,0.66-2.54c0.65-1.08,1.67-1.74,3.08-1.5c0.5,0.09,1.02,0.04,1.54,0.04
			c1.5-0.01,2.62-0.68,3.1-2.1c0.36-1.08,0.98-1.51,2.1-1.57c0.87-0.05,1.82-0.23,2.57-0.64c0.83-0.46,1.44-0.26,2.15,0.09
			c0.85,0.41,1.77,0.71,2.58,1.19c0.9,0.53,1.75,0.55,2.76,0.31c0.63-0.15,1.46-0.09,2.01,0.22c0.99,0.56,2,0.77,3.11,0.84
			c1.56,0.1,2.76,0.7,3.4,2.32c0.74,1.89,1.96,3.33,4.06,4.04c1.24,0.42,2.32,1.33,2.41,2.95c0.03,0.48,0.52,0.94,0.82,1.4
			c0.35,0.52,0.84,0.98,1.08,1.54c0.49,1.18,0.83,2.41,1.27,3.61c0.25,0.66,0.33,1.38-0.31,1.72c-0.49,0.26-1.19,0.13-1.8,0.17
			c-0.05,0-0.12-0.05-0.17-0.09c-1.46-1.37-3-1.46-4.73-0.46c-0.51,0.3-1.25,0.21-1.87,0.31c-0.75,0.13-1.49,0.3-2.23,0.42
			c-0.7,0.12-1.41,0.2-2.13,0.29c1.11,1.06,2.15,2.11,3.24,3.09c0.89,0.8,1.84,0.91,2.99,0.37c0.96-0.45,2.06-0.6,3.1-0.85
			c0.62-0.15,1.32-0.1,1.85-0.39c1.3-0.71,2.43-0.29,3.36,0.52c1.49,1.29,3.13,1.85,5.07,1.92c2.45,0.09,3.16,0.77,3.93,3.15
			c0.19,0.58,0.52,1.16,0.93,1.61c0.91,0.99,1.83,2.01,2.91,2.79c1.15,0.84,1.87,1.7,1.36,3.19c-0.06,0.16,0.02,0.37,0.05,0.7
			c1.81,0.4,3.64,0.94,5.5,1.18c1.87,0.24,3,1.42,3.96,2.76c0.65,0.9,1.45,1.31,2.41,1.73c1.73,0.77,3.36,1.78,5.06,2.65
			c0.84,0.43,1.74,0.77,2.6,1.18c0.79,0.38,1.57,0.78,2.34,1.2c0.83,0.46,1.61,1.04,2.48,1.4c0.75,0.31,1.44,0.04,2.08-0.57
			c0.46-0.44,1.19-0.78,1.82-0.83c2.66-0.21,5.19,0.09,7.33,2c1.22,1.09,2.8,0.77,4.24,0.5c0.78-0.15,1.47-0.13,1.94,0.43
			c0.74,0.88,1.67,0.94,2.62,0.77c1.66-0.29,2.92,0.28,4.2,1.33c1.92,1.57,4.04,2.54,6.72,1.69c2.43-0.77,4.75,0.48,6.46,3.2
			c0.43-0.09,0.92-0.17,1.4-0.3c1.57-0.41,1.57-0.42,1.65-2c0.12-2.19,1-3.35,3.12-3.79c0.62-0.13,1.46,0.01,1.98,0.36
			c1.23,0.82,2.56,1.02,3.86,0.62c1.98-0.61,3.77-0.13,5.56,0.56c1.66,0.64,3.65-0.12,3.92-1.84c0.39-2.59,2.26-3.37,4.32-4.01
			c0.79-0.24,1.63-0.34,2.46-0.37c0.4-0.02,0.86,0.19,1.2,0.42c1.53,1.01,2.75,1.11,4.17-0.07c2.36-1.97,5.12-3.07,7.95-4.09
			c0.46-0.17,1.03-0.45,1.23-0.84c0.48-0.93,1.22-0.95,2.1-0.99C267.07,316.62,268.9,316.41,270.51,316.27z M154.17,313.34
			c-0.41-1.23-1.58-2.31-2.41-2.26c-2.54,0.15-5.13-0.49-7.62,0.51c-0.78,0.31-1.53,0.32-2.36-0.19c-1.34-0.82-2.41-0.49-3.53,0.65
			c-0.41,0.42-1.02,0.87-1.57,0.91c-2.29,0.18-4.58,0.22-6.88,0.3c-1.02,0.03-2.05,0.01-3.08,0.05c-0.44,0.02-0.93,0.05-1.31,0.25
			c-0.32,0.17-0.53,0.57-0.78,0.87c0.34,0.22,0.67,0.57,1.04,0.62c0.41,0.06,0.88-0.11,1.3-0.24c1.04-0.31,2.03-0.37,3.16-0.2
			c2.02,0.3,4.13,0.26,6.04-0.62c1.46-0.67,2.82-0.62,4.28-0.15c0.65,0.21,1.4,0.44,2.04,0.32c2.82-0.51,5.64-1.08,8.43-1.74
			C152.08,312.16,153.12,311.85,154.17,313.34z M278.49,339.31c-2.02,1.54-3.68,3.2-6.06,3.79c-0.42,0.11-0.85,0.59-1.08,1.01
			c-0.69,1.25,0.55,3.79,1.98,3.94c0.44,0.05,1.03-0.37,1.37-0.75c0.25-0.28,0.27-0.83,0.28-1.27c0.02-1.05,0.32-1.82,1.41-2.23
			c1.03-0.39,1.54-1.27,1.71-2.36C278.2,340.77,278.35,340.08,278.49,339.31z M127.24,346.48c0.33,0.37,0.47,0.59,0.67,0.73
			c0.37,0.25,0.76,0.46,1.17,0.65c1.95,0.93,2.09,1.4,1.01,3.33c-0.05,0.09,0.02,0.24,0.03,0.39c1.6,0.64,2.58-0.41,3.81-1.46
			c-0.16-1.16-0.26-2.42-0.54-3.64c-0.24-1.06-1.2-1.78-2.22-1.62C129.81,345.07,128.45,345.4,127.24,346.48z M114.01,297.34
			c1.19,1.7,2.12,2.29,3.14,1.77c1.99-1.03,4.13-1.13,6.28-1.29c0.62-0.05,1.3-0.02,1.57-0.97c-0.98-1.31-2.44-1.35-3.9-1.3
			c-1.07,0.04-2.14,0.17-3.22,0.27C116.49,295.94,115.12,296.14,114.01,297.34z M282.19,321.96c-0.19,0.64-0.32,1.11-0.47,1.61
			c0.54,0.36,1.01,0.66,1.62,1.06c0.78-1.47,1.92-0.98,3.15-0.97c1.78,0.02,2.02,1.07,2.29,2.59c1.68-0.94,3.46-1.33,4.21-3.41
			c-0.45-0.39-0.95-0.83-1.13-0.98c-1.62,0.29-3,0.98-4.03,0.63C285.97,321.86,284.19,322.12,282.19,321.96z M281.85,345.13
			c0.37-0.23,0.72-0.55,1.12-0.65c0.57-0.15,1.31-0.38,1.75-0.14c1.04,0.55,1.78,0.26,2.6-0.35c0.43-0.33,1.11-0.81,1.46-0.68
			c1.3,0.49,1.63-0.4,2.49-1.44c-0.74,0.16-1.07,0.22-1.38,0.31c-0.71,0.21-1.41,0.55-2.13,0.63c-1.04,0.11-2.11-0.01-3.16,0.07
			c-0.87,0.06-1.68,0.11-1.94-0.96C281.1,342.61,280.92,343.32,281.85,345.13z M268.78,325.13c2.07,0.22,2.81-0.39,2.84-1.98
			c0.01-0.62-0.28-0.99-0.94-0.86c-1.55,0.32-3.09,0.65-4.62,1.04c-0.31,0.08-0.74,0.45-0.76,0.7c-0.02,0.37,0.18,0.96,0.46,1.11
			c0.45,0.24,1.06,0.27,1.59,0.24C267.97,325.35,268.57,325.17,268.78,325.13z M110.68,297.78c-1.12-0.19-2.3-0.78-3.1-0.45
			c-1.18,0.48-2.6,0.94-3.38,2.14c0.48,0.95,1.02,1.19,1.91,0.73c0.54-0.28,1.21-0.44,1.82-0.42
			C109.26,299.81,110.07,299.2,110.68,297.78z M293.59,328.16c-1.72-1.34-1.79-1.36-2.6-0.8c-1.63,1.12-2.02,2.33-1.35,4.5
			C291.11,330.8,291.28,328.54,293.59,328.16z M297.49,343.61c-1.45-2.14-2.24-2.73-4.37-0.07
			C294.5,344.69,295.87,343.57,297.49,343.61z M262.24,345.78c1.19,0.18,2.04,0.38,2.89,0.39c0.35,0,0.87-0.33,1-0.64
			c0.13-0.32,0.01-0.97-0.24-1.16c-0.34-0.25-1-0.41-1.35-0.25C263.83,344.46,263.23,345.05,262.24,345.78z"/>
		<path class="st3" d="M212.32,147.27c0.08-0.93-0.45-1.38-1.3-1.54c-0.69-0.12-1.23-0.36-1.2-1.28c2.05-1.28,4.28-1.14,6.39-0.37
			c3.59,1.3,3.86,2.25,2.16,5.72c0.61,1.17,1.53,1.41,2.75,1.01c1.07-0.35,1.95-0.05,2.77,0.79c1.84,1.89,3.98,2.72,6.6,1.6
			c0.76-0.32,1.54,0.1,1.87,0.84c0.32,0.74-0.03,1.25-0.64,1.6c-0.55,0.32-1.16,0.54-1.73,0.84c-2.48,1.35-4.59,3.18-5.13,6.02
			c-0.35,1.86-0.45,3.77-0.94,5.63c-0.13,0.49,0.22,1.27,0.58,1.72c1.46,1.79,1.63,3.65,0.67,5.73c-0.25,0.55-0.22,1.25-0.25,1.88
			c-0.11,2.71-2.51,4.03-4.8,2.63c-0.38-0.23-0.75-0.51-1.16-0.68c-1.09-0.44-2.11-0.23-2.72,0.74c-1.62,2.57-4.2,3.02-6.88,3.29
			c-0.64,0.06-1.28,0.03-1.92,0c-0.75-0.04-1.57,0.05-1.75,0.82c-0.12,0.51,0.21,1.22,0.53,1.71c0.54,0.85,1.23,1.6,1.83,2.37
			c0.94-0.24,1.13-0.83,1.27-1.59c0.3-1.61,1.13-2.34,2.8-2.22c1.62,0.11,2.82-0.48,3.95-1.54c1.52-1.42,3.37-0.85,5.11-0.63
			c0.38,0.05,0.67,0.79,1.06,1.29c-1.23,0.82-2.26,1.5-3.6,2.39c0.98,0.84,1.61,1.57,2.39,2.03c2.67,1.55,4.37,3.8,5.43,6.67
			c0.52,1.41,1.26,2.8,2.17,3.99c0.52,0.68,1.58,0.98,2.42,1.4c0.71,0.36,1.63,0.49,1.6,1.73c-2.03,0.36-3.39,1.54-4.37,3.3
			c-0.23,0.42-0.88,0.77-1.39,0.86c-1.69,0.28-2.57,1.25-2.94,2.86c-0.14,0.6-0.46,1.18-0.81,1.69c-1.32,1.89-1.34,1.87-3.61,1.33
			c-1.25-0.3-1.25-0.3-2.52,0.28c0.57,1.43,1.03,2.95,1.77,4.32c0.78,1.45,0.94,2.86,0.54,4.42c-0.56,2.24,0.11,3.31,2.36,3.91
			c1.17,0.31,2.34,0.61,3.51,0.91c1.08,0.28,2.22,0.38,3.2-0.13c1.79-0.94,3.45-0.45,5.21,0.04c2.86,0.79,5.27,2.49,7.89,3.75
			c1.49,0.71,1.64,0.77,2.87-0.26c0.39-0.33,0.82-0.6,1.24-0.89c1.15-0.77,2.24-0.68,3.39,0.08c1.67,1.1,3.46,1.51,5.42,0.74
			c0.52-0.2,1.13-0.2,1.7-0.27c1.52-0.19,2.84-0.58,3.24-2.37c0.09-0.41,0.59-0.97,0.97-1.04c2.06-0.36,3.96-1.37,6.15-1.24
			c2.62,0.15,4.93-0.73,7.06-2.37c0.99-0.76,2.42-1.12,3.71-1.28c2.14-0.27,4.32-0.24,6.48-0.33c1.44,1.94,0.9,4.11,0.65,6.21
			c-0.06,0.46-0.58,1.01-1.03,1.25c-2.02,1.06-4,2.11-4.62,4.85c0.34,0.74,0.78,1.85,1.34,2.9c0.45,0.83,1.09,1.54,1.57,2.36
			c0.31,0.54,0.6,1.14,0.69,1.75c0.45,3.03-0.2,6-0.62,8.97c-0.05,0.35-0.26,0.73-0.5,1.01c-1.59,1.81-2.18,3.91-1.8,6.25
			c0.35,2.18-0.29,4.15-0.97,6.16c-0.67,1.98-1.19,4.01-2.59,5.67c-0.4,0.48-0.81,1.1-0.88,1.69c-0.26,2.26-2.03,3.24-3.6,4.35
			c-0.52,0.37-1.3,0.56-1.96,0.56c-2.43,0.01-4.86-0.02-7.28-0.17c-1.01-0.06-2-0.43-2.99-0.69c-0.8-0.21-1.69-0.31-2.36-0.74
			c-0.96-0.62-2.31-1.07-2.27-2.54c0.08-2.44-1.44-3.83-3.15-5.15c-0.2-0.16-0.39-0.35-0.62-0.45c-2.99-1.33-4.31-3.81-4.9-6.87
			c-0.3-1.56-0.77-3.03-0.38-4.71c0.39-1.66-1.05-3.97-2.63-4.55c-1.03-0.38-1.53-1.12-1.91-2.02c-1.07-2.47-2.29-2.98-4.98-1.83
			c0,1.19,0,2.49,0,3.73c0.2,0.13,0.3,0.2,0.41,0.27c1.9,1.16,1.92,1.89,0.11,3.21c-0.46,0.34-0.93,0.67-1.61,1.16
			c0.74,1.45,1.33,2.98,2.24,4.27c0.72,1.02,1.2,1.97,0.95,3.18c-0.27,1.32,0.31,2.17,1.3,2.95c0.85,0.67,1.63,1.44,2.33,2.27
			c0.31,0.36,0.33,0.96,0.62,1.91c-1.1-0.33-1.79-0.42-2.37-0.73c-0.72-0.37-1.55-0.78-1.98-1.41c-1.03-1.48-2.78-1.47-4.11-2.28
			c-0.64-0.39-1.17-0.15-1.76,0.26c-0.7,0.5-1.51,0.84-2.24,1.23c-1.2-1.7-1.2-1.71,0.09-3.32c-1.71-0.95-3.51-0.68-5.2-0.26
			c-1.07,0.27-2.04,1.03-2.18,2.41c-0.08,0.84-0.66,1.42-1.47,1.59c-2.06,0.43-4.12,0.87-6.2,1.15c-0.53,0.07-1.22-0.35-1.7-0.73
			c-0.64-0.51-1.14-1.19-1.79-1.89c-0.29,0.09-0.69,0.13-0.99,0.32c-2.01,1.23-4.11,0.64-6.16,0.25c-0.59-0.11-1.31-0.69-1.55-1.24
			c-0.62-1.4-1.65-2.01-3.08-2.1c-0.77-0.05-1.54,0.01-2.31-0.02c-0.57-0.02-1.14-0.09-1.71-0.19c-1-0.16-1.99-0.34-2.98-0.55
			c-0.8-0.17-1.64-0.3-2.37-0.65c-0.8-0.38-0.85-1.09-0.19-1.7c0.51-0.48,1.09-0.87,1.64-1.3c-0.68-0.93-1.59-1.04-2.57-0.97
			c-1.72,0.12-3.44,0.32-5.16,0.31c-2.17-0.01-4.34-0.21-6.51-0.32c-0.64-0.03-1.28-0.07-1.92-0.07c-1.53,0-3.01,0.02-4.49-0.68
			c-1.02-0.48-2.1-0.6-3.42-0.21c-2.01,0.59-4.17,0.01-6.27-0.38c-1.93-0.35-4-0.83-5.84-0.21c-2.33,0.79-4.58,0.5-6.88,0.37
			c-0.96-0.06-1.92-0.04-2.89-0.03c-1.77,0.01-2.67-0.47-3.24-2.11c-0.58-1.67-1.42-2.96-3.18-3.58c-0.48-0.17-0.86-0.76-1.17-1.23
			c-0.73-1.13-1.56-2.23-2.04-3.47c-0.63-1.62-1.55-3.05-2.36-4.56c-1.01-1.89-0.74-4.01-0.72-6.05c0.01-1.16,2.13-3.01,3.37-3.01
			c1.19,0,2.41,0.18,3.58,0.46c0.73,0.17,1.27,0.23,1.98-0.17c1.11-0.61,2.32-1.09,3.54-1.43c1.29-0.36,2.62-0.12,3.63,0.77
			c0.82,0.71,1.7,0.82,2.66,0.77c1.91-0.11,3.82-0.17,5.71-0.41c0.91-0.12,1.87-0.47,2.64-0.97c1.3-0.85,2.57-0.77,3.79-0.09
			c0.87,0.48,1.66,1.18,2.37,1.89c1.29,1.27,2.25,1.13,2.76-0.63c0.4-1.39,1.01-2.6,2.02-3.63c0.21-0.22,0.36-0.52,0.49-0.81
			c0.73-1.58,1.79-1.97,3.33-1.3c1.34,0.58,2.7,1.13,4.09,1.59c0.52,0.17,1.2,0.23,1.71,0.05c1.57-0.57,3.3-0.68,4.59-2.05
			c0.8-0.85,2.01-1.33,3.06-1.93c0.83-0.47,1.73-0.82,2.54-1.33c0.33-0.21,0.7-0.66,0.71-1.01c0.03-0.95,0.58-1.53,1.17-2.12
			c0.59-0.59,1.18-1.18,1.74-1.8c0.61-0.67,1.23-1.28,2.21-1.42c0.34-0.05,0.64-0.36,0.94-0.55c-0.11-1.19-0.72-1.71-1.79-1.62
			c-2.42,0.19-4.52-0.74-6.57-1.83c-1.96-1.04-2.14-3.41-0.32-4.59c0.63-0.41,1.35-0.76,2.07-0.94c1.35-0.33,2.6-0.69,3.85-1.43
			c1.12-0.66,2.69-0.62,4.07-0.79c0.31-0.04,0.69,0.28,0.99,0.5c0.41,0.3,0.77,0.66,1.22,1.05c0.73-0.67,1.15-1.5,0.65-2.22
			c-0.75-1.07-1.87-0.22-2.63-0.17c-2.35-0.67-2.18-2.91-3.29-4.54c-0.51,0-1.15-0.05-1.77,0.01c-1.83,0.17-2.63-0.98-3.26-2.68
			c-0.5-1.36,0.14-2.43,1.51-3.11c0.56-0.28,1.12-0.58,1.68-0.87c0.67-0.35,0.99-0.84,1.12-1.64c0.25-1.61,1.09-2.01,2.59-1.45
			c1.2,0.44,2.39,0.96,3.63,1.24c1.47,0.32,1.87-0.23,1.44-1.66c-0.28-0.92-0.55-1.84-0.81-2.76c-0.24-0.82-0.57-1.23-1.62-1.12
			c-1.78,0.19-3.59-0.01-5.38,0.11c-1.54,0.1-2.39-0.92-2.7-1.99c-0.35-1.23-1.2-1.9-1.89-2.8c-0.77-1-1.63-2.02-2.07-3.17
			c-0.42-1.1-0.52-2.4,0.43-3.45c0.13-0.14,0.35-0.3,0.34-0.45c-0.05-1.77,1-2.95,2.09-4.14c0.16-0.18,0.29-0.46,0.31-0.7
			c0.12-1.59,1.05-2.65,2.2-3.64c0.69-0.59,1.3-1.15,2.3-1.25c0.5-0.05,1.04-0.49,1.39-0.9c0.74-0.87,0.37-2.09-0.71-2.5
			c-0.66-0.24-1.43-0.26-2-0.62c-0.48-0.3-1-0.91-1.06-1.43c-0.08-0.76,0.59-1.23,1.34-1.39c1.48-0.32,2.97-0.62,4.46-0.9
			c2.07-0.39,4.14-0.76,6.21-1.12c0.92-0.16,1.4-0.79,1.83-1.54C208.57,149.46,210.26,148.2,212.32,147.27z M197.9,247.64
			c0.82,0.26,1.55,0.11,2.33-0.34c2.66-1.53,5.6-1.87,8.5-1.16c2.14,0.53,3.82,0.12,5.3-1.01c-0.41-1.23-0.79-2.33-1.22-3.63
			c-0.56,0.16-1.33,0.18-1.85,0.56c-1.71,1.23-3.61,1.49-5.62,1.39c-1.86-0.08-3.71-0.15-5.06,1.56c-0.27,0.34-0.92,0.37-1.39,0.54
			C197.88,245.91,197.39,246.51,197.9,247.64z M221.44,245.18c0.74-0.24,1.45-0.48,2.18-0.69c2-0.58,3.96-1.55,6.08-0.27
			c0.31,0.19,1.13-0.12,1.48-0.45c0.19-0.18,0.03-1.02-0.24-1.33c-0.59-0.65-1.35-1.14-2.04-1.7c-0.5,0.16-1.12,0.17-1.32,0.46
			c-1.08,1.6-2.31,0.78-3.53,0.32c-0.65-0.24-1.3-0.61-1.96-0.62c-0.56-0.01-1.32,0.25-1.66,0.66c-0.46,0.57-0.66,1.39-0.07,2.12
			C220.72,244.14,221.03,244.61,221.44,245.18z M150.77,248.49c0.44,0.79,0.65,1.77,1.16,1.96c1.94,0.71,3.98,1.05,6.1-0.15
			c-0.61-0.73-1.12-1.34-1.51-1.8C154.59,248.49,152.85,248.49,150.77,248.49z M229.16,238.91c0.29-0.83,0.4-1.57-0.39-1.78
			c-0.52-0.13-1.26,0.06-1.73,0.36c-0.67,0.43-0.46,1.26,0.31,1.39C227.91,238.99,228.49,238.91,229.16,238.91z"/>
		<path class="st3" d="M228.27,273.39c1.27,0.88,2.36,1.65,3.46,2.4c1.32,0.91,0.47,2.59,1.43,3.8c0.35-0.26,0.71-0.54,1.03-0.78
			c-0.28-0.78-0.68-1.42-0.7-2.07c-0.04-1.39,1.19-2.47,2.62-2.46c1.95,0.01,3.76,0.67,5.56,1.31c0.32,0.11,0.53,0.52,0.8,0.78
			c0.64,0.62,1.28,1.24,1.92,1.86c0.36,0.35,0.91,0.66,1.03,1.09c0.32,1.09,0.97,1.56,2.05,1.7c0.36,0.05,0.77,0.46,0.99,0.8
			c0.71,1.13,2.09,1.67,2.53,3.09c0.12,0.37,1.09,0.54,1.7,0.69c1.05,0.26,1.92,0.67,2.25,1.86c0.27,0,0.57,0.09,0.76-0.01
			c2.64-1.4,4.79,0.19,7,1.19c0.45,0.2,0.91,0.79,1.02,1.27c0.37,1.54,0.46,3.16,0.08,4.7c-0.16,0.64-0.83,1.25-1.43,1.64
			c-1,0.67-2.14,1.13-3.19,1.73c-0.55,0.31-1.12,0.65-1.56,1.1c-0.79,0.8-1.71,1.15-2.78,1.5c-1.74,0.57-3.36,1.52-4.97,2.44
			c-0.86,0.49-1.66,0.95-2.69,0.8c-0.93-0.13-1.55,0.28-2.07,1.06c-0.56,0.85-1.18,1.7-1.93,2.38c-0.69,0.62-1.52,1.18-2.39,1.49
			c-0.88,0.31-1.83,0.32-2.69-0.45c-0.56-0.51-1.25-0.11-1.67,0.43c-0.58,0.76-1.07,1.58-1.61,2.38c-0.32,0.47-0.63,0.96-1,1.4
			c-0.53,0.63-1.19,0.83-1.82,0.18c-1.23-1.29-2.65-1.03-3.84-0.22c-2.04,1.38-4.39,1.59-6.64,2.24c-2.61,0.75-5.15,1.01-7.86,0.79
			c-1.76-0.14-3.46-0.62-5.23-0.65c-0.51-0.01-1.01-0.16-1.52-0.16c-2.13,0-4.22-0.19-6.22-0.97c-0.41-0.16-0.89-0.26-1.32-0.22
			c-1.64,0.17-3.12,0.07-4.62-0.92c-0.69-0.46-2-0.23-2.96,0c-1.84,0.44-3.38-0.22-4.97-0.92c-0.68-0.3-1.37-0.76-2.06-0.77
			c-3.36-0.06-5.68-1.58-7.07-4.61c-0.15-0.33-0.47-0.61-0.75-0.87c-2.85-2.69-6.02-4.93-9.69-6.35c-1.24-0.48-1.9-1.21-2.08-2.46
			c-0.25-1.74-1.39-2.62-2.94-3.14c-0.42-0.14-0.92-0.26-1.21-0.56c-1.58-1.65-3.68-2.71-4.87-4.82c-0.66-1.18-1.78-2.27-2.94-2.98
			c-2.45-1.5-4.26-3.67-6.33-5.56c-0.91-0.83-1.4-2.27-1.72-3.53c-0.23-0.91-0.58-1.63-1.12-2.35c-1.44-1.91-0.53-3.99,1.87-4.21
			c1.34-0.13,2.69-0.03,4.04-0.08c3.13-0.11,6.27-0.17,9.39-0.41c0.74-0.06,1.61-0.55,2.12-1.12c0.95-1.04,2.02-1.17,3.3-1.09
			c1.65,0.1,3.3,0.04,4.95,0.08c0.76,0.02,1.58-0.06,2.26,0.21c1.87,0.72,3.71,0.62,5.4-0.26c1.36-0.71,2.32-0.3,3.56,0.26
			c1.72,0.79,3.59,1.25,5.42,1.75c1.72,0.47,3.48,0.82,5.23,1.22c1.04,0.24,1.91,0.79,2.49,1.68c0.48,0.73,1.09,1.01,1.95,0.94
			c1.65-0.13,3.3-0.32,4.95-0.31c1.85,0.01,3.69,0.2,5.54,0.33c1.27,0.09,1.63-0.4,1.1-1.59c-0.15-0.35-0.37-0.67-0.59-0.98
			c-0.91-1.32-0.55-2.19,1.09-2.22c1.46-0.03,2.96,0.06,4.39,0.35c1.37,0.28,2.68,0.23,3.98-0.16c1.51-0.46,3-0.42,4.54-0.11
			c1.56,0.3,3.17,0.35,4.76,0.55c1.68,0.21,2.44,1.07,2.49,2.8C228.29,272.06,228.27,272.82,228.27,273.39z M200.58,300.9
			c1.7,0.45,3.08,0.82,4.47,1.18c0.8-0.99,1.96-1.66,1.39-3.35c-0.98,0.47-1.84,0.96-2.75,1.28
			C202.79,300.32,201.66,299.63,200.58,300.9z"/>
		<path class="st3" d="M52.91,194.04c-1.55-2.18-0.92-4.77-0.01-7.38c0.25-0.72,0.45-1.47,0.57-2.22c0.16-1.01,0.76-1.61,1.64-1.94
			c1.07-0.41,2.2-0.69,3.25-1.14c1.8-0.75,3.34-0.4,4.75,0.88c1.34,1.21,2.9,1.84,4.73,1.73c0.19-0.01,0.44,0.04,0.57-0.05
			c1.52-1.16,3.15-0.49,4.79-0.41c1.44,0.07,2.91-0.24,4.36-0.4c0.32-0.03,0.62-0.18,0.94-0.19c2.44-0.08,2.78-0.17,3.38,2.28
			c0.75,3.04,0.76,6.06,0.05,9.11c-0.09,0.37-0.25,0.78-0.17,1.12c0.73,3.18-0.12,6.24-0.68,9.3c-0.24,1.31-0.27,2.49,0.17,3.76
			c0.29,0.82,0.31,1.74,0.39,2.62c0.08,0.89-0.32,1.55-0.93,2.21c-1.55,1.69-3.11,3.39-4.49,5.21c-1.2,1.58-2.69,2.3-4.61,2.53
			c-3.3,0.39-6.55,1.03-9.52,2.62c-0.66,0.35-1.29,0.83-1.82,1.37c-1.36,1.38-2.52,1.49-4.21,0.38c-1.38-0.91-2.77-1.81-4.21-2.6
			c-0.76-0.42-1.64-0.72-2.5-0.87c-2.01-0.34-4.09-0.4-6.06-0.88c-1.84-0.45-3.69-1.17-4.81-2.89c-1.33-2.04-2.61-4.06-4.83-5.33
			c-1.17-0.67-1.78-1.75-1.89-3.31c-0.08-1.3-1-2.55-1.6-3.8c-0.44-0.9-1.05-1.73-1.43-2.65c-0.91-2.23-0.18-3.94,2.35-4.83
			c2.2-0.77,4.67-0.91,6.85,0.55c0.27,0.18,0.58,0.33,0.76,0.58c0.92,1.22,2.04,1.77,3.64,1.65c1.31-0.09,1.75,0.55,1.96,1.84
			c0.11,0.67,0.36,1.33,0.63,1.96c0.35,0.82,0.85,1.57,1.19,2.4c0.49,1.2,1.27,1.83,2.61,1.85c1.01,0.01,2.02,0.17,3.03,0.3
			c1.11,0.14,1.45-0.08,1.8-1.18c0.72-2.25,0.56-4.37-1.29-5.98c-2.08-1.81-1.38-3.94-0.88-6.02
			C51.55,195.52,52.24,194.96,52.91,194.04z"/>
		<path class="st3" d="M340.39,190.09c1.4-2.3,3.24-3.93,5.36-5.29c0.85-0.55,1.68-1.14,2.47-1.77c1.14-0.91,2.36-1.47,3.88-1.34
			c1.93,0.16,2.07,0.33,1.41,2.22c1.85,0.04,2.95,1.33,4.13,2.48c0.83,0.8,1.65,1.5,2.78,1.97c1.12,0.46,2.06,1.43,3.01,2.24
			c1.16,0.98,2.29,1.67,3.75,0.54c0.23-0.17,0.61-0.22,0.91-0.21c0.94,0.04,1.44-0.63,1.78-1.27c0.59-1.12,0.94-2.36,1.47-3.51
			c0.69-1.5-0.43-2.69-0.73-3.98c-0.27-1.16-1.25-2.2-2.06-3.16c-1.15-1.36-1.74-2.95-2.23-4.6c-0.34-1.17-0.61-2.36-0.95-3.52
			c-0.35-1.15-0.96-1.62-2.14-1.39c-1.38,0.27-2.55,0.14-3.84-0.55c-0.96-0.51-2.3-0.25-3.34-0.67c-1.66-0.68-3.14-0.33-4.61,0.37
			c-0.62,0.3-1.21,0.72-1.71,1.2c-1.76,1.73-3.84,2.12-6.19,1.68c-1.51-0.28-3.01-0.32-4.57,0.06c-2.21,0.53-2.97-0.28-3.57-2.5
			c-0.5-1.83-0.32-3.33,0.65-4.91c0.4-0.66,0.37-1.59,0.51-2.41c0.11-0.62,0.1-1.28,0.29-1.87c0.44-1.41,0.9-1.65,2.42-1.44
			c0.57,0.08,1.13,0.13,1.81,0.21c0.24,0.78,0.48,1.56,0.77,2.51c3.15,0.73,6.32,1.49,9.6-0.03c0.91-0.42,1.94-0.45,2.5-1.48
			c0.1-0.18,0.62-0.29,0.86-0.2c1.52,0.57,2.79,0.17,4.16-0.63c0.69-0.4,1.81-0.43,2.61-0.2c1.44,0.43,2.96,0.88,3.98,2.14
			c0.98,1.2,2.24,1.82,3.77,2c0.47,0.05,1.09,0.21,1.33,0.54c1.03,1.48,2.46,1.93,4.1,1.83c1.31,1.58,2.55,3.1,3.82,4.61
			c0.63,0.75,0.61,1.57,0.15,2.3c-0.63,1.01-0.44,1.85,0.05,2.86c1.2,2.46,0.54,4.35-1.8,5.77c-0.35,0.22-0.6,0.62-0.86,0.9
			c0.72,1.66,2.73,0.76,3.68,2.23c-0.26,1.51-0.51,3.21-0.85,4.89c-0.27,1.3-0.45,2.35,0.94,3.33c1.58,1.12,1.48,4.32,0.11,5.69
			c-0.34,0.35-0.66,0.77-0.83,1.22c-0.54,1.42-1.06,2.86-1.49,4.32c-0.69,2.34-1.86,2.94-4.14,2.1c-1.46-0.54-2.86-0.03-4.24,0.46
			c-0.66,0.23-1.34,0.43-1.94,0.77c-0.74,0.41-1.36,1.17-2.13,1.36c-0.79,0.2-1.72-0.41-2.45,0.5c-0.23,0.29-0.8,0.36-1.23,0.42
			c-2.46,0.33-4.94,0.59-7.39,0.97c-0.77,0.12-1.46,0.25-2.23-0.05c-0.42-0.16-1.1-0.09-1.45,0.16c-0.88,0.62-1.5,0.32-1.93-0.42
			c-0.82-1.4-1.81-2.08-3.48-1.43c-0.33,0.13-0.97-0.04-1.23-0.3c-1.03-1.06-2.39-1.46-3.69-1.98c-1.38-0.56-2.11-1.46-2.27-2.99
			c-0.18-1.7-0.52-3.4-0.97-5.06c-0.22-0.82-0.7-1.7-1.33-2.25c-1.87-1.63-2.1-3.87-2.46-6.05c-0.24-1.48,0.17-3-0.66-4.48
			c-0.52-0.92,1.26-2.45,2.3-2.09c0.68,0.24,0.88,0.85,0.63,1.41c-0.61,1.32-0.31,2.17,1,2.8c0.36,0.17,0.71,0.63,0.81,1.02
			C337.61,189.86,338.73,190.35,340.39,190.09z"/>
		<path class="st3" d="M175.65,176.3c0,1.01,0.02,2.02-0.01,3.03c-0.02,0.71-0.5,0.97-1.15,1.04c-1.14,0.13-2.28,0.28-3.42,0.41
			c-0.25,0.03-0.55-0.04-0.75,0.08c-0.24,0.14-0.56,0.43-0.56,0.66c0,0.22,0.37,0.66,0.54,0.64c1.29-0.13,2.54,0.62,3.9-0.08
			c1.39-0.72,4.9,0.47,5.76,1.77c0.27,0.4,0.35,0.95,0.44,1.45c0.13,0.69,0.22,1.39,0.28,2.09c0.09,0.96,0.06,1.8-0.67,2.67
			c-1.06,1.25-1.21,2.77-0.27,4.25c0.43,0.67,0.64,1.33,0.35,2.17c-0.4,1.14-0.59,2.35-1.01,3.48c-0.36,0.98-1.08,1.76-2.08,2.16
			c-1.18,0.48-2.38,0.96-3.62,1.23c-0.7,0.15-1.58,0.06-2.22-0.25c-1.27-0.62-2.37-0.57-3.34,0.4c-1.07,1.07-2.12,0.83-3.33,0.26
			c-1.01-0.48-2.12-0.78-3.19-1.15c-1.08-0.37-2.2-0.64-3.24-1.11c-2.5-1.14-3.11-3.9-1.42-6c1.38-1.71,1.62-3.71,1.35-5.8
			c-0.11-0.88-0.31-1.76-0.56-2.62c-0.43-1.49-0.27-2.83,1.04-3.79c1.63-1.2,1.8-2.67,0.97-4.39c-0.46-0.94-0.22-1.67,0.49-2.42
			c1.12-1.19,2.31-2.13,3.98-2.52c1.47-0.34,2.88-0.98,4.3-1.55c0.39-0.16,0.78-0.47,1-0.83c0.53-0.87,1.3-0.99,2.17-0.8
			C173.43,171.2,175.77,174.18,175.65,176.3z"/>
		<path class="st3" d="M245.05,175c1.16,1.25,1.91,2.31,2.89,3.05c1.78,1.35,3.36,0.89,4.39-1.09c1.05-2.03,1.63-2.68,3.4-3.83
			c0.56,0.46,1.17,0.9,1.71,1.41c0.97,0.92,1.81,1.81,2.07,3.32c0.23,1.37,0.5,2.87,1.68,3.98c0.77,0.72,0.61,1.79,0.12,2.69
			c-0.45,0.84-1.02,1.63-1.46,2.47c-0.62,1.2-1.14,2.41-0.45,3.81c0.6,1.23,0.27,2.41-0.52,3.42c-2.11,2.71-4.7,4.72-8.23,5.16
			c-1.9,0.23-3.8,0.52-5.42-1.07c-0.84-0.82-2.05-0.94-3.24-0.8c-2.64,0.32-4-0.97-3.82-3.6c0.02-0.25,0.14-0.54,0.07-0.76
			c-0.62-1.9-0.32-3.51,1.26-4.85c0.56-0.48,0.38-1.21-0.19-1.47c-1.81-0.83-1.55-2.59-1.69-3.99c-0.12-1.19,0.49-2.46,0.78-3.69
			c1.9-1.14,3.15-3.16,5.28-3.97C244.19,174.99,244.79,175.03,245.05,175z"/>
		<path class="st3" d="M61.97,174.45c-1.66,1.08-3.01,2.03-4.44,2.84c-0.65,0.37-1.46,0.66-2.19,0.63
			c-1.84-0.07-2.88,1.03-3.63,2.39c-1.27,2.3-3.35,3.39-5.63,4.32c-0.8,0.33-1.58,0.82-2.24,1.38c-1.24,1.05-2.54,1.96-4.15,2.29
			c-1.23,0.26-2.41,0.16-3.45-0.69c-1.43-1.16-1.58-1.47-0.95-3.25c0.46-1.33,0.42-2.57-0.02-3.92c-0.34-1.05-0.33-2.25-0.32-3.38
			c0.01-0.99,0.8-1.51,1.56-2.03c0.49-0.34,1.08-0.79,1.25-1.31c0.53-1.63,1-3.31,1.29-5c0.36-2.13,1.93-3.85,4.16-4.06
			c2.13-0.2,4.23,0.14,6.2,0.97c0.6,0.26,1.17,0.8,1.55,1.35c0.94,1.38,2.21,2.07,3.84,2.21c2.08,0.19,3.77,1.01,4.96,2.83
			C60.3,172.84,61.1,173.5,61.97,174.45z"/>
		<path class="st3" d="M239.62,117.29c1.94,0.04,2.55-0.45,2.98-2.21c0.3-1.22,0.32-2.52,1.48-3.42c1.37-1.06,2.89-1.56,4.59-1.74
			c1.87-0.2,3.65-0.64,4.9-2.26c0.89-1.15,2.2-1.54,3.58-1.58c2.95-0.08,5.9-0.13,8.62,1.33c0.6,0.32,1.37,0.33,2.02,0.59
			c0.83,0.33,1.68,0.67,2.41,1.17c0.83,0.56,0.9,1.26,0.19,1.93c-0.48,0.46-1.13,0.84-1.77,1c-1.86,0.45-3.75,0.75-5.62,1.17
			c-0.74,0.16-1.48,0.42-2.19,0.7c-1.3,0.51-2.52,1.18-3.98,1.27c-0.58,0.04-1.19,0.65-1.68,1.11c-1,0.97-1.88,2.06-2.9,3.01
			c-0.83,0.77-1.55,1.55-1.46,2.74c0.07,0.92-0.25,1.69-0.93,2.21c-1.35,1.05-2.69,2.17-4.19,2.94c-1.43,0.74-2,0.3-2.86-1.11
			c-0.89-1.46-1.68-3.02-3.26-3.95c-0.54-0.32-0.93-0.88-1.39-1.33c-0.86-0.83-0.83-1.89-0.5-2.87
			C238.02,116.96,239.03,117.33,239.62,117.29z"/>
		<path class="st3" d="M224.21,85.8c-0.89-0.7-1.66-0.59-2.51-0.36c-1.27,0.34-2.56,0.81-3.92,0.16c-1.09-0.53-1.45-1.14-1.11-2.27
			c0.05-0.18,0.16-0.35,0.24-0.52c1.09-2.53,1.13-2.59,3.46-1.24c1.74,1.01,3.49,1.2,5.32,0.44c1.06-0.44,1.97-0.42,2.86,0.32
			c0.19,0.16,0.44,0.27,0.67,0.37c2.22,0.97,3.87,2.41,4.94,4.7c0.7,1.5,1.81,2.89,3.79,3.22c1.43,0.24,2.35,1.2,2.3,2.85
			c-0.02,0.69,0.3,1.41,0.21,2.08c-0.08,0.57-0.38,1.32-0.83,1.58c-0.92,0.53-1.97,0.94-3.02,1.12c-1.5,0.26-3.05,0.22-4.57,0.41
			c-0.68,0.08-1.42,0.27-1.96,0.65c-1.3,0.92-2.5,0.75-3.71-0.07c-0.68-0.46-1.33-0.99-1.96-1.52c-1.09-0.91-1.48-2.06-1.09-3.44
			c0.33-1.15-0.02-2.09-0.72-3.03c-1.98-2.67-1.84-3.27,1-5.08C223.76,86.08,223.93,85.98,224.21,85.8z"/>
		<path class="st3" d="M197.64,89.83c0.06,0.35,0.1,0.6,0.16,0.85c0.25,0.95-0.26,1.25-1.09,1.37c-1.58,0.22-2.81-0.61-4.09-1.31
			c-0.05-0.03-0.07-0.12-0.12-0.14c-2-1.03-3.94-2.25-6.05-2.99c-0.82-0.29-2.11,0.31-3.02,0.81c-2.19,1.2-4.43,1.83-6.95,1.72
			c-1.85-0.08-2.87-1.29-3.84-2.55c-0.24-0.31-0.16-1.02,0.01-1.45c0.46-1.2,0.01-1.91-0.97-2.58c-0.78-0.54-1.48-1.22-2.14-1.92
			c-0.77-0.81-0.73-1.4,0.19-2.06c2.09-1.53,3.06-1.9,5.21-0.62c0.38,0.23,0.82,0.36,1.24,0.51c1.09,0.39,1.89,0.97,1.96,2.29
			c0.06,1.07,0.81,1.62,1.75,2.07c3.07,1.49,6.3,1.98,9.68,1.92c1.9-0.04,3.82,0.2,5.72,0.36c1,0.09,2.22,1.43,2.33,2.48
			C197.68,89.02,197.64,89.48,197.64,89.83z"/>
		<path class="st3" d="M201.92,63.08c0.98-0.08,2.11-0.24,3.25-0.27c1.85-0.04,2.45,0.71,1.63,2.29c-0.66,1.27-0.82,2.67-1.36,3.91
			c-0.62,1.42-1.69,2.66-2.69,3.88c-0.24,0.29-0.95,0.32-1.42,0.29c-1.66-0.14-2.98-1.04-4.24-2.06c-0.15-0.12-0.29-0.26-0.38-0.42
			c-1.49-2.69,1.24-7.62,4.3-7.77C201.26,62.92,201.51,63.01,201.92,63.08z"/>
		<path class="st3" d="M262.43,103.55c-1.23-0.23-2.65-0.39-3.85-1.45c-0.89-0.79-1.18-1.65-0.95-2.71
			c0.19-0.87,0.45-1.73,0.78-2.56c0.35-0.89,1.05-0.89,1.69-0.11c0.29,0.36,0.67,0.73,1.09,0.9c1.15,0.48,2.38,0.79,3.51,1.31
			c0.54,0.25,0.99,0.8,1.36,1.3c0.18,0.25,0.2,0.76,0.08,1.07C265.65,102.57,264,103.58,262.43,103.55z"/>
		<path class="st3" d="M74.23,175.24c-0.04,1.53-0.7,2.02-1.88,1.72c-1.52-0.38-2.89-1.17-3.84-2.4c-0.88-1.14-1.76-1.94-3.3-1.88
			c-0.84,0.04-1.22-0.61-1.18-1.44c0.04-0.79,0.75-1.44,1.6-1.26c2.12,0.44,4.22,0.99,6.33,1.52c0.24,0.06,0.55,0.19,0.65,0.38
			C73.24,173.12,73.82,174.39,74.23,175.24z"/>
		<path class="st3" d="M194.12,59.84c-1.11,0.07-1.95-0.43-2.73-1.17c-0.73-0.7-0.72-1.41-0.3-2.25c0.43-0.86,1.02-1.01,1.89-0.68
			c0.89,0.34,1.84,0.52,2.73,0.87c0.9,0.35,1.16,1.01,0.7,1.8C195.92,59.25,195.24,59.93,194.12,59.84z"/>
	</g>
</g>
</svg>
